<?xml version="1.0" standalone="no"?>
<!DOCTYPE svg PUBLIC "-//W3C//DTD SVG 1.1//EN" "http://www.w3.org/Graphics/SVG/1.1/DTD/svg11.dtd" >
<svg xmlns="http://www.w3.org/2000/svg">
<metadata>Generated by IcoMoon</metadata>
<defs>
<font id="livenation" horiz-adv-x="1024">
<font-face units-per-em="1024" ascent="960" descent="-64" />
<missing-glyph horiz-adv-x="1024" />
<glyph unicode="&#x20;" horiz-adv-x="512" d="" />
<glyph unicode="&#xe900;" glyph-name="activity" d="M938.667 490.667h-170.667c-17.067 0-34.133-12.8-38.4-29.867l-89.6-260.267-217.6 644.267c-4.267 17.067-21.333 29.867-38.4 29.867s-34.133-12.8-38.4-29.867l-119.467-354.133h-140.8c-25.6 0-42.667-17.067-42.667-42.667s17.067-42.667 42.667-42.667h170.667c17.067 0 34.133 12.8 38.4 29.867l89.6 260.267 217.6-648.533c4.267-17.067 21.333-29.867 38.4-29.867s34.133 12.8 38.4 29.867l119.467 354.133h140.8c25.6 0 42.667 17.067 42.667 42.667s-17.067 46.933-42.667 46.933z" />
<glyph unicode="&#xe901;" glyph-name="airplay" d="M853.333 874.667h-682.667c-72.533 0-128-55.467-128-128v-426.667c0-72.533 55.467-128 128-128h42.667c25.6 0 42.667 17.067 42.667 42.667s-17.067 42.667-42.667 42.667h-42.667c-25.6 0-42.667 17.067-42.667 42.667v426.667c0 25.6 17.067 42.667 42.667 42.667h682.667c25.6 0 42.667-17.067 42.667-42.667v-426.667c0-25.6-17.067-42.667-42.667-42.667h-42.667c-25.6 0-42.667-17.067-42.667-42.667s17.067-42.667 42.667-42.667h42.667c72.533 0 128 55.467 128 128v426.667c0 72.533-55.467 128-128 128zM546.133 345.6c-17.067 21.333-51.2 21.333-64 0l-213.333-256c-8.533-12.8-12.8-29.867-4.267-46.933 4.267-12.8 17.067-21.333 34.133-21.333h426.667c17.067 0 29.867 8.533 38.4 25.6s4.267 34.133-4.267 46.933l-213.333 251.733zM388.267 106.667l123.733 145.067 123.733-145.067h-247.467z" />
<glyph unicode="&#xe902;" glyph-name="alert-circle" d="M512 917.333c-260.267 0-469.333-209.067-469.333-469.333s209.067-469.333 469.333-469.333 469.333 209.067 469.333 469.333-209.067 469.333-469.333 469.333zM512 64c-213.333 0-384 170.667-384 384s170.667 384 384 384c213.333 0 384-170.667 384-384s-170.667-384-384-384zM512 405.333c25.6 0 42.667 17.067 42.667 42.667v170.667c0 25.6-17.067 42.667-42.667 42.667s-42.667-17.067-42.667-42.667v-170.667c0-25.6 17.067-42.667 42.667-42.667zM512 320v0c-25.6 0-42.667-17.067-42.667-42.667s21.333-42.667 42.667-42.667 42.667 17.067 42.667 42.667-17.067 42.667-42.667 42.667z" />
<glyph unicode="&#xe903;" glyph-name="alert-octagon" d="M968.533 652.8l-251.733 251.733c-4.267 8.533-17.067 12.8-29.867 12.8h-349.867c-12.8 0-25.6-4.267-29.867-12.8l-251.733-251.733c-8.533-4.267-12.8-17.067-12.8-29.867v-354.133c0-12.8 4.267-21.333 12.8-29.867l251.733-251.733c4.267-4.267 17.067-8.533 29.867-8.533h354.133c12.8 0 21.333 4.267 29.867 12.8l251.733 251.733c8.533 8.533 12.8 17.067 12.8 29.867v349.867c-4.267 12.8-8.533 25.6-17.067 29.867zM896 290.133l-226.133-226.133h-315.733l-226.133 226.133v315.733l226.133 226.133h320l221.867-226.133v-315.733zM512 405.333c25.6 0 42.667 17.067 42.667 42.667v170.667c0 25.6-17.067 42.667-42.667 42.667s-42.667-17.067-42.667-42.667v-170.667c0-25.6 17.067-42.667 42.667-42.667zM512 320v0c-25.6 0-42.667-17.067-42.667-42.667s21.333-42.667 42.667-42.667 42.667 17.067 42.667 42.667-17.067 42.667-42.667 42.667z" />
<glyph unicode="&#xe904;" glyph-name="alert-triangle" d="M981.333 213.333l-358.4 605.867c-17.067 29.867-46.933 51.2-81.067 59.733s-68.267 4.267-98.133-12.8c-17.067-8.533-34.133-25.6-42.667-42.667 0 0 0 0 0 0l-358.4-610.133c-34.133-59.733-12.8-140.8 46.933-174.933 17.067-12.8 38.4-17.067 59.733-17.067h725.333c34.133 0 68.267 12.8 89.6 38.4 25.6 25.6 38.4 55.467 38.4 89.6-4.267 21.333-8.533 46.933-21.333 64zM904.533 119.467c-8.533-8.533-21.333-12.8-29.867-12.8h-725.333c-8.533 0-12.8 0-21.333 4.267-21.333 12.8-25.6 38.4-17.067 59.733l362.667 601.6c4.267 4.267 8.533 12.8 12.8 12.8 21.333 12.8 46.933 4.267 59.733-12.8l362.667-601.6c4.267-4.267 4.267-12.8 4.267-21.333 4.267-12.8-4.267-21.333-8.533-29.867zM512 362.667c25.6 0 42.667 17.067 42.667 42.667v170.667c0 25.6-17.067 42.667-42.667 42.667s-42.667-17.067-42.667-42.667v-170.667c0-25.6 17.067-42.667 42.667-42.667zM512 277.333v0c-25.6 0-42.667-17.067-42.667-42.667s21.333-42.667 42.667-42.667 42.667 17.067 42.667 42.667-17.067 42.667-42.667 42.667z" />
<glyph unicode="&#xe905;" glyph-name="align-center" d="M256 576c-25.6 0-42.667-17.067-42.667-42.667s17.067-42.667 42.667-42.667h512c25.6 0 42.667 17.067 42.667 42.667s-17.067 42.667-42.667 42.667h-512zM128 661.333h768c25.6 0 42.667 17.067 42.667 42.667s-17.067 42.667-42.667 42.667h-768c-25.6 0-42.667-17.067-42.667-42.667s17.067-42.667 42.667-42.667zM896 405.333h-768c-25.6 0-42.667-17.067-42.667-42.667s17.067-42.667 42.667-42.667h768c25.6 0 42.667 17.067 42.667 42.667s-17.067 42.667-42.667 42.667zM768 234.667h-512c-25.6 0-42.667-17.067-42.667-42.667s17.067-42.667 42.667-42.667h512c25.6 0 42.667 17.067 42.667 42.667s-17.067 42.667-42.667 42.667z" />
<glyph unicode="&#xe906;" glyph-name="align-justify" d="M896 576h-768c-25.6 0-42.667-17.067-42.667-42.667s17.067-42.667 42.667-42.667h768c25.6 0 42.667 17.067 42.667 42.667s-17.067 42.667-42.667 42.667zM128 661.333h768c25.6 0 42.667 17.067 42.667 42.667s-17.067 42.667-42.667 42.667h-768c-25.6 0-42.667-17.067-42.667-42.667s17.067-42.667 42.667-42.667zM896 405.333h-768c-25.6 0-42.667-17.067-42.667-42.667s17.067-42.667 42.667-42.667h768c25.6 0 42.667 17.067 42.667 42.667s-17.067 42.667-42.667 42.667zM896 234.667h-768c-25.6 0-42.667-17.067-42.667-42.667s17.067-42.667 42.667-42.667h768c25.6 0 42.667 17.067 42.667 42.667s-17.067 42.667-42.667 42.667z" />
<glyph unicode="&#xe907;" glyph-name="align-left" d="M128 490.667h597.333c25.6 0 42.667 17.067 42.667 42.667s-17.067 42.667-42.667 42.667h-597.333c-25.6 0-42.667-17.067-42.667-42.667s17.067-42.667 42.667-42.667zM128 661.333h768c25.6 0 42.667 17.067 42.667 42.667s-17.067 42.667-42.667 42.667h-768c-25.6 0-42.667-17.067-42.667-42.667s17.067-42.667 42.667-42.667zM896 405.333h-768c-25.6 0-42.667-17.067-42.667-42.667s17.067-42.667 42.667-42.667h768c25.6 0 42.667 17.067 42.667 42.667s-17.067 42.667-42.667 42.667zM725.333 234.667h-597.333c-25.6 0-42.667-17.067-42.667-42.667s17.067-42.667 42.667-42.667h597.333c25.6 0 42.667 17.067 42.667 42.667s-17.067 42.667-42.667 42.667z" />
<glyph unicode="&#xe908;" glyph-name="align-right" d="M896 576h-597.333c-25.6 0-42.667-17.067-42.667-42.667s17.067-42.667 42.667-42.667h597.333c25.6 0 42.667 17.067 42.667 42.667s-17.067 42.667-42.667 42.667zM128 661.333h768c25.6 0 42.667 17.067 42.667 42.667s-17.067 42.667-42.667 42.667h-768c-25.6 0-42.667-17.067-42.667-42.667s17.067-42.667 42.667-42.667zM896 405.333h-768c-25.6 0-42.667-17.067-42.667-42.667s17.067-42.667 42.667-42.667h768c25.6 0 42.667 17.067 42.667 42.667s-17.067 42.667-42.667 42.667zM896 234.667h-597.333c-25.6 0-42.667-17.067-42.667-42.667s17.067-42.667 42.667-42.667h597.333c25.6 0 42.667 17.067 42.667 42.667s-17.067 42.667-42.667 42.667z" />
<glyph unicode="&#xe909;" glyph-name="anchor" d="M938.667 490.667h-128c-25.6 0-42.667-17.067-42.667-42.667s17.067-42.667 42.667-42.667h81.067c-21.333-179.2-162.133-320-337.067-337.067v512c72.533 17.067 128 85.333 128 166.4 0 93.867-76.8 170.667-170.667 170.667s-170.667-76.8-170.667-170.667c0-81.067 55.467-145.067 128-166.4v-516.267c-179.2 21.333-320 162.133-337.067 337.067h81.067c25.6 0 42.667 17.067 42.667 42.667s-17.067 42.667-42.667 42.667h-128c-25.6 0-42.667-17.067-42.667-42.667 0-260.267 209.067-469.333 469.333-469.333s469.333 209.067 469.333 469.333c0 29.867-17.067 46.933-42.667 46.933zM426.667 746.667c0 46.933 38.4 85.333 85.333 85.333s85.333-38.4 85.333-85.333-38.4-85.333-85.333-85.333c-46.933 0-85.333 38.4-85.333 85.333z" />
<glyph unicode="&#xe90a;" glyph-name="aperture" d="M891.733 174.933c55.467 76.8 89.6 170.667 89.6 273.067 0 64-12.8 128-38.4 183.467 0 0 0 4.267 0 4.267-64 149.333-204.8 256-375.467 277.333 0 0-4.267 0-4.267 0-17.067 4.267-34.133 4.267-51.2 4.267-153.6 0-290.133-72.533-375.467-187.733 0-4.267-4.267-4.267-4.267-8.533-55.467-76.8-89.6-170.667-89.6-273.067 0-64 12.8-128 38.4-187.733 0 0 0-4.267 0-4.267 64-145.067 204.8-256 371.2-277.333 0 0 4.267 0 4.267 0 17.067 0 34.133-4.267 51.2-4.267 153.6 0 290.133 72.533 375.467 187.733 4.267 4.267 8.533 8.533 8.533 12.8zM584.533 320h-149.333l-72.533 128 72.533 128h149.333l72.533-128-72.533-128zM128 448c0 59.733 12.8 119.467 38.4 170.667l170.667-298.667h-187.733c-12.8 38.4-21.333 81.067-21.333 128zM682.667 576h187.733c12.8-38.4 21.333-81.067 21.333-128 0-59.733-12.8-119.467-38.4-170.667l-170.667 298.667zM832 661.333h-345.6l93.867 162.133c106.667-17.067 196.267-76.8 251.733-162.133zM486.4 832l-170.667-298.667-93.867 162.133c64 76.8 157.867 128 264.533 136.533zM192 234.667h345.6l-93.867-162.133c-106.667 17.067-196.267 76.8-251.733 162.133zM537.6 64l170.667 298.667 93.867-162.133c-64-76.8-157.867-128-264.533-136.533z" />
<glyph unicode="&#xe90b;" glyph-name="archive" d="M981.333 874.667h-938.667c-25.6 0-42.667-17.067-42.667-42.667v-213.333c0-25.6 17.067-42.667 42.667-42.667h42.667v-512c0-25.6 17.067-42.667 42.667-42.667h768c25.6 0 42.667 17.067 42.667 42.667v512h42.667c25.6 0 42.667 17.067 42.667 42.667v213.333c0 25.6-17.067 42.667-42.667 42.667zM853.333 106.667h-682.667v469.333h682.667v-469.333zM938.667 661.333h-853.333v128h853.333v-128zM426.667 405.333h170.667c25.6 0 42.667 17.067 42.667 42.667s-17.067 42.667-42.667 42.667h-170.667c-25.6 0-42.667-17.067-42.667-42.667s17.067-42.667 42.667-42.667z" />
<glyph unicode="&#xe90c;" glyph-name="arrow-down-circle" d="M512 917.333c-260.267 0-469.333-209.067-469.333-469.333s209.067-469.333 469.333-469.333 469.333 209.067 469.333 469.333-209.067 469.333-469.333 469.333zM512 64c-213.333 0-384 170.667-384 384s170.667 384 384 384c213.333 0 384-170.667 384-384s-170.667-384-384-384zM652.8 477.867l-98.133-98.133v238.933c0 25.6-17.067 42.667-42.667 42.667s-42.667-17.067-42.667-42.667v-238.933l-98.133 98.133c-17.067 17.067-42.667 17.067-59.733 0s-17.067-42.667 0-59.733l170.667-170.667c4.267-4.267 8.533-8.533 12.8-8.533 4.267-4.267 12.8-4.267 17.067-4.267s12.8 0 17.067 4.267c4.267 4.267 8.533 4.267 12.8 8.533l170.667 170.667c17.067 17.067 17.067 42.667 0 59.733s-42.667 17.067-59.733 0z" />
<glyph unicode="&#xe90d;" glyph-name="arrow-down-left" d="M725.333 277.333h-324.267l354.133 354.133c17.067 17.067 17.067 42.667 0 59.733s-42.667 17.067-59.733 0l-354.133-354.133v324.267c0 25.6-17.067 42.667-42.667 42.667s-42.667-17.067-42.667-42.667v-426.667c0-4.267 0-12.8 4.267-17.067 4.267-8.533 12.8-17.067 21.333-21.333 4.267-4.267 12.8-4.267 17.067-4.267h426.667c25.6 0 42.667 17.067 42.667 42.667s-17.067 42.667-42.667 42.667z" />
<glyph unicode="&#xe90e;" glyph-name="arrow-down-right" d="M768 661.333c0 25.6-17.067 42.667-42.667 42.667s-42.667-17.067-42.667-42.667v-324.267l-354.133 354.133c-17.067 17.067-42.667 17.067-59.733 0s-17.067-42.667 0-59.733l354.133-354.133h-324.267c-25.6 0-42.667-17.067-42.667-42.667s17.067-42.667 42.667-42.667h426.667c4.267 0 12.8 0 17.067 4.267 8.533 4.267 17.067 12.8 21.333 21.333 4.267 4.267 4.267 12.8 4.267 17.067v426.667z" />
<glyph unicode="&#xe90f;" glyph-name="arrow-down" d="M840.533 477.867c-17.067 17.067-42.667 17.067-59.733 0l-226.133-226.133v494.933c0 25.6-17.067 42.667-42.667 42.667s-42.667-17.067-42.667-42.667v-494.933l-226.133 226.133c-17.067 17.067-42.667 17.067-59.733 0s-17.067-42.667 0-59.733l298.667-298.667c4.267-4.267 8.533-8.533 12.8-8.533 4.267-4.267 12.8-4.267 17.067-4.267s12.8 0 17.067 4.267c4.267 4.267 8.533 4.267 12.8 8.533l298.667 298.667c17.067 17.067 17.067 42.667 0 59.733z" />
<glyph unicode="&#xe910;" glyph-name="arrow-left-circle" d="M512 917.333c-260.267 0-469.333-209.067-469.333-469.333s209.067-469.333 469.333-469.333 469.333 209.067 469.333 469.333-209.067 469.333-469.333 469.333zM512 64c-213.333 0-384 170.667-384 384s170.667 384 384 384c213.333 0 384-170.667 384-384s-170.667-384-384-384zM682.667 490.667h-238.933l98.133 98.133c17.067 17.067 17.067 42.667 0 59.733s-42.667 17.067-59.733 0l-170.667-170.667c-4.267-4.267-8.533-8.533-8.533-12.8-4.267-8.533-4.267-21.333 0-34.133 4.267-4.267 4.267-8.533 8.533-12.8l170.667-170.667c8.533-8.533 21.333-12.8 29.867-12.8s21.333 4.267 29.867 12.8c17.067 17.067 17.067 42.667 0 59.733l-98.133 98.133h238.933c25.6 0 42.667 17.067 42.667 42.667s-17.067 42.667-42.667 42.667z" />
<glyph unicode="&#xe911;" glyph-name="arrow-left" d="M810.667 490.667h-494.933l226.133 226.133c17.067 17.067 17.067 42.667 0 59.733s-42.667 17.067-59.733 0l-298.667-298.667c-4.267-4.267-8.533-8.533-8.533-12.8-4.267-8.533-4.267-21.333 0-34.133 4.267-4.267 4.267-8.533 8.533-12.8l298.667-298.667c8.533-8.533 21.333-12.8 29.867-12.8s21.333 4.267 29.867 12.8c17.067 17.067 17.067 42.667 0 59.733l-226.133 226.133h494.933c25.6 0 42.667 17.067 42.667 42.667s-17.067 42.667-42.667 42.667z" />
<glyph unicode="&#xe912;" glyph-name="arrow-right-circle" d="M512 917.333c-260.267 0-469.333-209.067-469.333-469.333s209.067-469.333 469.333-469.333 469.333 209.067 469.333 469.333-209.067 469.333-469.333 469.333zM512 64c-213.333 0-384 170.667-384 384s170.667 384 384 384c213.333 0 384-170.667 384-384s-170.667-384-384-384zM721.067 465.067c-4.267 4.267-4.267 8.533-8.533 12.8l-170.667 170.667c-17.067 17.067-42.667 17.067-59.733 0s-17.067-42.667 0-59.733l98.133-98.133h-238.933c-25.6 0-42.667-17.067-42.667-42.667s17.067-42.667 42.667-42.667h238.933l-98.133-98.133c-17.067-17.067-17.067-42.667 0-59.733 8.533-8.533 21.333-12.8 29.867-12.8s21.333 4.267 29.867 12.8l170.667 170.667c4.267 4.267 8.533 8.533 8.533 12.8 4.267 12.8 4.267 21.333 0 34.133z" />
<glyph unicode="&#xe913;" glyph-name="arrow-right" d="M849.067 430.933c4.267 8.533 4.267 21.333 0 34.133-4.267 4.267-4.267 8.533-8.533 12.8l-298.667 298.667c-17.067 17.067-42.667 17.067-59.733 0s-17.067-42.667 0-59.733l226.133-226.133h-494.933c-25.6 0-42.667-17.067-42.667-42.667s17.067-42.667 42.667-42.667h494.933l-226.133-226.133c-17.067-17.067-17.067-42.667 0-59.733 8.533-8.533 21.333-12.8 29.867-12.8s21.333 4.267 29.867 12.8l298.667 298.667c4.267 4.267 8.533 8.533 8.533 12.8z" />
<glyph unicode="&#xe914;" glyph-name="arrow-up-circle" d="M512 917.333c-260.267 0-469.333-209.067-469.333-469.333s209.067-469.333 469.333-469.333 469.333 209.067 469.333 469.333-209.067 469.333-469.333 469.333zM512 64c-213.333 0-384 170.667-384 384s170.667 384 384 384c213.333 0 384-170.667 384-384s-170.667-384-384-384zM541.867 648.533c-4.267 4.267-8.533 8.533-12.8 8.533-8.533 4.267-21.333 4.267-34.133 0-4.267-4.267-8.533-4.267-12.8-8.533l-170.667-170.667c-17.067-17.067-17.067-42.667 0-59.733s42.667-17.067 59.733 0l98.133 98.133v-238.933c0-25.6 17.067-42.667 42.667-42.667s42.667 17.067 42.667 42.667v238.933l98.133-98.133c8.533-8.533 21.333-12.8 29.867-12.8s21.333 4.267 29.867 12.8c17.067 17.067 17.067 42.667 0 59.733l-170.667 170.667z" />
<glyph unicode="&#xe915;" glyph-name="arrow-up-left" d="M401.067 618.667h324.267c25.6 0 42.667 17.067 42.667 42.667s-17.067 42.667-42.667 42.667h-426.667c-4.267 0-12.8 0-17.067-4.267-8.533-4.267-17.067-12.8-21.333-21.333-4.267-4.267-4.267-12.8-4.267-17.067v-426.667c0-25.6 17.067-42.667 42.667-42.667s42.667 17.067 42.667 42.667v324.267l354.133-354.133c8.533-8.533 21.333-12.8 29.867-12.8s21.333 4.267 29.867 12.8c17.067 17.067 17.067 42.667 0 59.733l-354.133 354.133z" />
<glyph unicode="&#xe916;" glyph-name="arrow-up-right" d="M763.733 678.4c-4.267 8.533-12.8 17.067-21.333 21.333-4.267 4.267-12.8 4.267-17.067 4.267h-426.667c-25.6 0-42.667-17.067-42.667-42.667s17.067-42.667 42.667-42.667h324.267l-354.133-354.133c-17.067-17.067-17.067-42.667 0-59.733 8.533-8.533 17.067-12.8 29.867-12.8s21.333 4.267 29.867 12.8l354.133 354.133v-324.267c0-25.6 17.067-42.667 42.667-42.667s42.667 17.067 42.667 42.667v426.667c0 4.267 0 12.8-4.267 17.067z" />
<glyph unicode="&#xe917;" glyph-name="arrow-up" d="M840.533 477.867l-298.667 298.667c-4.267 4.267-8.533 8.533-12.8 8.533-8.533 4.267-21.333 4.267-34.133 0-4.267-4.267-8.533-4.267-12.8-8.533l-298.667-298.667c-17.067-17.067-17.067-42.667 0-59.733s42.667-17.067 59.733 0l226.133 226.133v-494.933c0-25.6 17.067-42.667 42.667-42.667s42.667 17.067 42.667 42.667v494.933l226.133-226.133c8.533-8.533 21.333-12.8 29.867-12.8s21.333 4.267 29.867 12.8c17.067 17.067 17.067 42.667 0 59.733z" />
<glyph unicode="&#xe918;" glyph-name="at-sign" d="M512 917.333c-123.733 0-243.2-46.933-332.8-136.533s-136.533-209.067-136.533-332.8c0-260.267 209.067-469.333 469.333-469.333 102.4 0 204.8 34.133 285.867 98.133 17.067 12.8 21.333 42.667 8.533 59.733s-42.667 21.333-59.733 8.533c-68.267-51.2-149.333-81.067-234.667-81.067-213.333 0-384 170.667-384 384 0 102.4 38.4 200.533 110.933 273.067s170.667 110.933 273.067 110.933c213.333 0 384-170.667 384-384v-42.667c0-46.933-38.4-85.333-85.333-85.333s-85.333 38.4-85.333 85.333v213.333c0 25.6-17.067 42.667-42.667 42.667s-42.667-17.067-42.667-42.667v0c-34.133 25.6-81.067 42.667-128 42.667-119.467 0-213.333-93.867-213.333-213.333s93.867-213.333 213.333-213.333c64 0 119.467 29.867 157.867 72.533 29.867-42.667 81.067-72.533 140.8-72.533 93.867 0 170.667 76.8 170.667 170.667v42.667c0 260.267-209.067 469.333-469.333 469.333zM512 320c-72.533 0-128 55.467-128 128s55.467 128 128 128 128-55.467 128-128-55.467-128-128-128z" />
<glyph unicode="&#xe919;" glyph-name="award" d="M853.333 618.667c0 187.733-153.6 341.333-341.333 341.333s-341.333-153.6-341.333-341.333c0-110.933 51.2-209.067 132.267-268.8l-46.933-366.933c-4.267-17.067 4.267-34.133 17.067-42.667s29.867-8.533 46.933 0l192 115.2 192-115.2c4.267-4.267 12.8-4.267 21.333-4.267s17.067 4.267 21.333 8.533 21.333 25.6 17.067 42.667l-46.933 362.667c85.333 59.733 136.533 157.867 136.533 268.8zM256 618.667c0 140.8 115.2 256 256 256s256-115.2 256-256-115.2-256-256-256-256 115.2-256 256zM669.867 59.733l-136.533 81.067c-12.8 8.533-29.867 8.533-42.667 0l-136.533-81.067 29.867 243.2c38.4-17.067 81.067-25.6 128-25.6s89.6 8.533 128 25.6l29.867-243.2z" />
<glyph unicode="&#xe91a;" glyph-name="bar-chart-2" d="M768 576c-25.6 0-42.667-17.067-42.667-42.667v-426.667c0-25.6 17.067-42.667 42.667-42.667s42.667 17.067 42.667 42.667v426.667c0 25.6-17.067 42.667-42.667 42.667zM512 832c-25.6 0-42.667-17.067-42.667-42.667v-682.667c0-25.6 17.067-42.667 42.667-42.667s42.667 17.067 42.667 42.667v682.667c0 25.6-17.067 42.667-42.667 42.667zM256 405.333c-25.6 0-42.667-17.067-42.667-42.667v-256c0-25.6 17.067-42.667 42.667-42.667s42.667 17.067 42.667 42.667v256c0 25.6-17.067 42.667-42.667 42.667z" />
<glyph unicode="&#xe91b;" glyph-name="bar-chart" d="M512 576c-25.6 0-42.667-17.067-42.667-42.667v-426.667c0-25.6 17.067-42.667 42.667-42.667s42.667 17.067 42.667 42.667v426.667c0 25.6-17.067 42.667-42.667 42.667zM768 832c-25.6 0-42.667-17.067-42.667-42.667v-682.667c0-25.6 17.067-42.667 42.667-42.667s42.667 17.067 42.667 42.667v682.667c0 25.6-17.067 42.667-42.667 42.667zM256 320c-25.6 0-42.667-17.067-42.667-42.667v-170.667c0-25.6 17.067-42.667 42.667-42.667s42.667 17.067 42.667 42.667v170.667c0 25.6-17.067 42.667-42.667 42.667z" />
<glyph unicode="&#xe91c;" glyph-name="battery-charging" d="M213.333 234.667h-85.333c-25.6 0-42.667 17.067-42.667 42.667v341.333c0 25.6 17.067 42.667 42.667 42.667h136.533c25.6 0 42.667 17.067 42.667 42.667s-17.067 42.667-42.667 42.667h-136.533c-72.533 0-128-55.467-128-128v-341.333c0-72.533 55.467-128 128-128h85.333c25.6 0 42.667 17.067 42.667 42.667s-17.067 42.667-42.667 42.667zM725.333 746.667h-85.333c-25.6 0-42.667-17.067-42.667-42.667s17.067-42.667 42.667-42.667h85.333c25.6 0 42.667-17.067 42.667-42.667v-341.333c0-25.6-17.067-42.667-42.667-42.667h-136.533c-25.6 0-42.667-17.067-42.667-42.667s17.067-42.667 42.667-42.667h136.533c72.533 0 128 55.467 128 128v341.333c0 72.533-55.467 128-128 128zM981.333 533.333c-25.6 0-42.667-17.067-42.667-42.667v-85.333c0-25.6 17.067-42.667 42.667-42.667s42.667 17.067 42.667 42.667v85.333c0 25.6-17.067 42.667-42.667 42.667zM593.067 469.333c-8.533 12.8-21.333 21.333-38.4 21.333h-174.933l128 187.733c12.8 21.333 8.533 46.933-12.8 59.733s-46.933 8.533-59.733-12.8l-170.667-256c-8.533-12.8-8.533-29.867 0-42.667 4.267-12.8 17.067-21.333 34.133-21.333h174.933l-128-187.733c-12.8-21.333-8.533-46.933 12.8-59.733 8.533-4.267 17.067-8.533 25.6-8.533 12.8 0 25.6 8.533 34.133 17.067l170.667 256c8.533 17.067 12.8 29.867 4.267 46.933z" />
<glyph unicode="&#xe91d;" glyph-name="battery" d="M725.333 746.667h-597.333c-72.533 0-128-55.467-128-128v-341.333c0-72.533 55.467-128 128-128h597.333c72.533 0 128 55.467 128 128v341.333c0 72.533-55.467 128-128 128zM768 277.333c0-25.6-17.067-42.667-42.667-42.667h-597.333c-25.6 0-42.667 17.067-42.667 42.667v341.333c0 25.6 17.067 42.667 42.667 42.667h597.333c25.6 0 42.667-17.067 42.667-42.667v-341.333zM981.333 533.333c-25.6 0-42.667-17.067-42.667-42.667v-85.333c0-25.6 17.067-42.667 42.667-42.667s42.667 17.067 42.667 42.667v85.333c0 25.6-17.067 42.667-42.667 42.667z" />
<glyph unicode="&#xe91e;" glyph-name="bell-off" d="M605.867 102.4c-21.333 12.8-46.933 4.267-59.733-17.067s-38.4-25.6-59.733-17.067c-8.533 4.267-12.8 8.533-17.067 17.067-12.8 21.333-38.4 25.6-59.733 17.067-21.333-12.8-25.6-38.4-17.067-59.733 12.8-21.333 25.6-34.133 46.933-46.933s42.667-17.067 64-17.067c42.667 0 85.333 21.333 110.933 64 21.333 21.333 12.8 46.933-8.533 59.733zM392.533 797.867c34.133 21.333 76.8 34.133 119.467 34.133 0 0 0 0 0 0 55.467 0 110.933-21.333 149.333-64 42.667-38.4 64-93.867 64-149.333 0 0 0 0 0 0 0-76.8 8.533-149.333 29.867-226.133 4.267-17.067 21.333-29.867 42.667-29.867 4.267 0 8.533 0 12.8 0 21.333 4.267 34.133 29.867 29.867 51.2-21.333 68.267-29.867 136.533-29.867 204.8 0 0 0 0 0 0s0 0 0 0c0 166.4-132.267 298.667-298.667 298.667 0 0 0 0 0 0-59.733 0-115.2-17.067-166.4-51.2-17.067-12.8-25.6-38.4-12.8-59.733 12.8-17.067 42.667-21.333 59.733-8.533zM1011.2 8.533l-256 256c0 0 0 0 0 0l-682.667 682.667c-17.067 17.067-42.667 17.067-59.733 0s-17.067-42.667 0-59.733l209.067-209.067c-4.267-17.067-8.533-38.4-8.533-59.733 0-268.8-106.667-349.867-110.933-349.867-17.067-8.533-21.333-29.867-17.067-46.933 8.533-17.067 25.6-29.867 42.667-29.867h580.267l243.2-243.2c8.533-8.533 21.333-12.8 29.867-12.8s21.333 4.267 29.867 12.8c17.067 17.067 17.067 42.667 0 59.733zM217.6 277.333c38.4 59.733 76.8 162.133 81.067 324.267l324.267-324.267h-405.333z" />
<glyph unicode="&#xe91f;" glyph-name="bell" d="M921.6 268.8c0 0-110.933 81.067-110.933 349.867 0 166.4-132.267 298.667-298.667 298.667s-298.667-132.267-298.667-298.667c0-268.8-106.667-349.867-110.933-349.867-17.067-8.533-21.333-29.867-17.067-46.933 8.533-17.067 25.6-29.867 42.667-29.867h768c17.067 0 34.133 12.8 38.4 29.867s0 38.4-12.8 46.933zM217.6 277.333c38.4 64 81.067 170.667 81.067 341.333 0 119.467 93.867 213.333 213.333 213.333s213.333-93.867 213.333-213.333c0-170.667 42.667-277.333 81.067-341.333h-588.8zM605.867 102.4c-21.333 12.8-46.933 4.267-59.733-17.067s-38.4-25.6-59.733-17.067c-8.533 4.267-12.8 8.533-17.067 17.067-12.8 21.333-38.4 25.6-59.733 17.067-21.333-12.8-25.6-38.4-17.067-59.733 12.8-21.333 25.6-34.133 46.933-46.933s42.667-17.067 64-17.067c42.667 0 85.333 21.333 110.933 64 21.333 21.333 12.8 46.933-8.533 59.733z" />
<glyph unicode="&#xe920;" glyph-name="bluetooth" d="M571.733 448l204.8 204.8c17.067 17.067 17.067 42.667 0 59.733l-234.667 234.667c-12.8 12.8-29.867 17.067-46.933 8.533-17.067-4.267-25.6-21.333-25.6-38.4v-366.933l-162.133 162.133c-17.067 17.067-42.667 17.067-59.733 0s-17.067-42.667 0-59.733l204.8-204.8-204.8-204.8c-17.067-17.067-17.067-42.667 0-59.733s42.667-17.067 59.733 0l162.133 162.133v-366.933c0-17.067 8.533-34.133 25.6-38.4 4.267-4.267 12.8-4.267 17.067-4.267 12.8 0 21.333 4.267 29.867 12.8l234.667 234.667c17.067 17.067 17.067 42.667 0 59.733l-204.8 204.8zM554.667 814.933l132.267-132.267-132.267-132.267v264.533zM554.667 81.067v264.533l132.267-132.267-132.267-132.267z" />
<glyph unicode="&#xe921;" glyph-name="bold" d="M742.4 465.067c42.667 38.4 68.267 93.867 68.267 153.6 0 119.467-93.867 213.333-213.333 213.333h-341.333c-25.6 0-42.667-17.067-42.667-42.667v-682.667c0-25.6 17.067-42.667 42.667-42.667h384c119.467 0 213.333 93.867 213.333 213.333 0 81.067-46.933 149.333-110.933 187.733zM298.667 746.667h298.667c72.533 0 128-55.467 128-128s-55.467-128-128-128h-298.667v256zM640 149.333h-341.333v256h341.333c72.533 0 128-55.467 128-128s-55.467-128-128-128z" />
<glyph unicode="&#xe922;" glyph-name="book-open" d="M938.667 874.667h-256c-68.267 0-132.267-34.133-170.667-85.333-38.4 51.2-102.4 85.333-170.667 85.333h-256c-25.6 0-42.667-17.067-42.667-42.667v-640c0-25.6 17.067-42.667 42.667-42.667h298.667c46.933 0 85.333-38.4 85.333-85.333 0-25.6 17.067-42.667 42.667-42.667s42.667 17.067 42.667 42.667c0 46.933 38.4 85.333 85.333 85.333h298.667c25.6 0 42.667 17.067 42.667 42.667v640c0 25.6-17.067 42.667-42.667 42.667zM469.333 213.333c-25.6 12.8-55.467 21.333-85.333 21.333h-256v554.667h213.333c72.533 0 128-55.467 128-128v-448zM896 234.667h-256c-29.867 0-59.733-8.533-85.333-21.333v448c0 72.533 55.467 128 128 128h213.333v-554.667z" />
<glyph unicode="&#xe923;" glyph-name="book" d="M853.333 917.333h-576c-81.067 0-149.333-68.267-149.333-149.333v-640c0-81.067 68.267-149.333 149.333-149.333h576c25.6 0 42.667 17.067 42.667 42.667v853.333c0 25.6-17.067 42.667-42.667 42.667zM277.333 832h533.333v-554.667h-533.333c-21.333 0-42.667-4.267-64-17.067v507.733c0 34.133 29.867 64 64 64zM277.333 64c-34.133 0-64 29.867-64 64s29.867 64 64 64h533.333v-128h-533.333z" />
<glyph unicode="&#xe924;" glyph-name="bookmark" d="M725.333 874.667h-426.667c-72.533 0-128-55.467-128-128v-682.667c0-17.067 8.533-29.867 21.333-38.4s29.867-4.267 42.667 4.267l273.067 196.267 273.067-196.267c8.533-4.267 17.067-8.533 25.6-8.533s12.8 0 21.333 4.267c12.8 8.533 21.333 21.333 21.333 38.4v682.667c4.267 72.533-51.2 128-123.733 128zM768 145.067l-230.4 166.4c-8.533 4.267-17.067 8.533-25.6 8.533s-17.067-4.267-25.6-8.533l-230.4-166.4v601.6c0 25.6 17.067 42.667 42.667 42.667h426.667c25.6 0 42.667-17.067 42.667-42.667v-601.6z" />
<glyph unicode="&#xe925;" glyph-name="box" d="M925.867 674.133c0 4.267 0 4.267-4.267 8.533s-8.533 8.533-8.533 12.8c-8.533 12.8-21.333 25.6-38.4 34.133l-298.667 170.667c-38.4 21.333-89.6 21.333-128 0l-298.667-170.667c-12.8-8.533-25.6-21.333-38.4-34.133 0-4.267-4.267-8.533-8.533-12.8 0-4.267 0-4.267-4.267-8.533-8.533-17.067-12.8-34.133-12.8-55.467v-341.333c0-46.933 25.6-89.6 64-110.933l298.667-170.667c12.8-8.533 29.867-12.8 42.667-12.8 4.267-4.267 12.8-4.267 21.333-4.267s12.8 4.267 21.333 4.267 29.867 8.533 42.667 12.8l298.667 170.667c38.4 21.333 64 64 64 110.933v0 341.333c0 21.333-4.267 38.4-12.8 55.467zM490.667 827.733c8.533 4.267 12.8 4.267 21.333 4.267s12.8 0 21.333-4.267l277.333-157.867-298.667-170.667-298.667 170.667 277.333 157.867zM192 238.933c-12.8 8.533-21.333 21.333-21.333 38.4v320l298.667-170.667v-341.333l-277.333 153.6zM832 238.933l-277.333-157.867v341.333l298.667 170.667v-315.733c0-17.067-8.533-29.867-21.333-38.4z" />
<glyph unicode="&#xe926;" glyph-name="briefcase" d="M853.333 704h-128v42.667c0 72.533-55.467 128-128 128h-170.667c-72.533 0-128-55.467-128-128v-42.667h-128c-72.533 0-128-55.467-128-128v-426.667c0-72.533 55.467-128 128-128h682.667c72.533 0 128 55.467 128 128v426.667c0 72.533-55.467 128-128 128zM384 746.667c0 25.6 17.067 42.667 42.667 42.667h170.667c25.6 0 42.667-17.067 42.667-42.667v-42.667h-256v42.667zM640 618.667v-512h-256v512h256zM128 149.333v426.667c0 25.6 17.067 42.667 42.667 42.667h128v-512h-128c-25.6 0-42.667 17.067-42.667 42.667zM896 149.333c0-25.6-17.067-42.667-42.667-42.667h-128v512h128c25.6 0 42.667-17.067 42.667-42.667v-426.667z" />
<glyph unicode="&#xe927;" glyph-name="calendar" d="M810.667 832h-85.333v42.667c0 25.6-17.067 42.667-42.667 42.667s-42.667-17.067-42.667-42.667v-42.667h-256v42.667c0 25.6-17.067 42.667-42.667 42.667s-42.667-17.067-42.667-42.667v-42.667h-85.333c-72.533 0-128-55.467-128-128v-597.333c0-72.533 55.467-128 128-128h597.333c72.533 0 128 55.467 128 128v597.333c0 72.533-55.467 128-128 128zM213.333 746.667h85.333v-42.667c0-25.6 17.067-42.667 42.667-42.667s42.667 17.067 42.667 42.667v42.667h256v-42.667c0-25.6 17.067-42.667 42.667-42.667s42.667 17.067 42.667 42.667v42.667h85.333c25.6 0 42.667-17.067 42.667-42.667v-128h-682.667v128c0 25.6 17.067 42.667 42.667 42.667zM810.667 64h-597.333c-25.6 0-42.667 17.067-42.667 42.667v384h682.667v-384c0-25.6-17.067-42.667-42.667-42.667z" />
<glyph unicode="&#xe928;" glyph-name="camera-off" d="M925.867 93.867c0 0 0 0 0 0l-640 640c0 0 0 0 0 0l-213.333 213.333c-17.067 17.067-42.667 17.067-59.733 0s-17.067-42.667 0-59.733l140.8-140.8h-25.6c-72.533 0-128-55.467-128-128v-469.333c0-72.533 55.467-128 128-128h750.933l72.533-72.533c8.533-8.533 21.333-12.8 29.867-12.8s21.333 4.267 29.867 12.8c17.067 17.067 17.067 42.667 0 59.733l-85.333 85.333zM405.333 477.867c4.267 4.267 4.267 4.267 8.533 8.533l179.2-179.2c-17.067-12.8-38.4-25.6-59.733-29.867-34.133-4.267-68.267 0-93.867 21.333-29.867 21.333-46.933 46.933-55.467 81.067-4.267 34.133 4.267 68.267 21.333 98.133zM128 106.667c-25.6 0-42.667 17.067-42.667 42.667v469.333c0 25.6 17.067 42.667 42.667 42.667h110.933l115.2-115.2c-8.533-8.533-12.8-12.8-17.067-21.333-34.133-46.933-42.667-102.4-34.133-157.867s42.667-106.667 89.6-136.533c34.133-25.6 76.8-38.4 119.467-38.4 12.8 0 25.6 0 38.4 4.267 38.4 8.533 72.533 25.6 102.4 51.2l140.8-140.8h-665.6zM896 746.667h-149.333l-72.533 110.933c-8.533 8.533-21.333 17.067-34.133 17.067h-256c-25.6 0-42.667-17.067-42.667-42.667s17.067-42.667 42.667-42.667h234.667l72.533-110.933c8.533-8.533 21.333-17.067 34.133-17.067h170.667c25.6 0 42.667-17.067 42.667-42.667v-396.8c0-25.6 17.067-42.667 42.667-42.667s42.667 17.067 42.667 42.667v396.8c0 72.533-55.467 128-128 128z" />
<glyph unicode="&#xe929;" glyph-name="camera" d="M896 746.667h-149.333l-72.533 110.933c-8.533 8.533-21.333 17.067-34.133 17.067h-256c-12.8 0-25.6-8.533-34.133-17.067l-72.533-110.933h-149.333c-72.533 0-128-55.467-128-128v-469.333c0-72.533 55.467-128 128-128h768c72.533 0 128 55.467 128 128v469.333c0 72.533-55.467 128-128 128zM938.667 149.333c0-25.6-17.067-42.667-42.667-42.667h-768c-25.6 0-42.667 17.067-42.667 42.667v469.333c0 25.6 17.067 42.667 42.667 42.667h170.667c12.8 0 25.6 8.533 34.133 17.067l72.533 110.933h209.067l72.533-110.933c12.8-8.533 25.6-17.067 38.4-17.067h170.667c25.6 0 42.667-17.067 42.667-42.667v-469.333zM512 618.667c-119.467 0-213.333-93.867-213.333-213.333s93.867-213.333 213.333-213.333 213.333 93.867 213.333 213.333-93.867 213.333-213.333 213.333zM512 277.333c-72.533 0-128 55.467-128 128s55.467 128 128 128 128-55.467 128-128-55.467-128-128-128z" />
<glyph unicode="&#xe92a;" glyph-name="cast" d="M93.867 315.733c-21.333 4.267-46.933-12.8-51.2-34.133s8.533-46.933 34.133-51.2c68.267-12.8 119.467-64 132.267-132.267 4.267-21.333 21.333-34.133 42.667-34.133 4.267 0 4.267 0 8.533 0 21.333 4.267 38.4 25.6 34.133 51.2-21.333 102.4-98.133 179.2-200.533 200.533zM853.333 832h-682.667c-72.533 0-128-55.467-128-128v-85.333c0-25.6 17.067-42.667 42.667-42.667s42.667 17.067 42.667 42.667v85.333c0 25.6 17.067 42.667 42.667 42.667h682.667c25.6 0 42.667-17.067 42.667-42.667v-512c0-25.6-17.067-42.667-42.667-42.667h-256c-25.6 0-42.667-17.067-42.667-42.667s17.067-42.667 42.667-42.667h256c72.533 0 128 55.467 128 128v512c0 72.533-55.467 128-128 128zM89.6 486.4c-21.333 4.267-42.667-12.8-46.933-38.4-4.267-21.333 12.8-42.667 38.4-46.933 157.867-17.067 281.6-140.8 302.933-302.933 0-17.067 17.067-34.133 38.4-34.133 0 0 4.267 0 4.267 0 21.333 4.267 38.4 25.6 38.4 46.933-21.333 200.533-174.933 354.133-375.467 375.467zM85.333 149.333v0c-25.6 0-42.667-17.067-42.667-42.667s21.333-42.667 42.667-42.667 42.667 17.067 42.667 42.667-17.067 42.667-42.667 42.667z" />
<glyph unicode="&#xe92b;" glyph-name="check-circle" d="M938.667 529.067c-25.6 0-42.667-17.067-42.667-42.667v-38.4c0-213.333-170.667-384-384-384 0 0 0 0 0 0-213.333 0-384 170.667-384 384s170.667 384 384 384c0 0 0 0 0 0 55.467 0 106.667-12.8 157.867-34.133 21.333-8.533 46.933 0 55.467 21.333s0 46.933-21.333 55.467c-59.733 25.6-123.733 42.667-192 42.667 0 0 0 0 0 0-260.267 0-469.333-209.067-469.333-469.333s209.067-469.333 469.333-469.333c0 0 0 0 0 0 260.267 0 469.333 209.067 469.333 469.333v38.4c0 25.6-17.067 42.667-42.667 42.667zM413.867 520.533c-17.067 17.067-42.667 17.067-59.733 0s-17.067-42.667 0-59.733l128-128c8.533-8.533 17.067-12.8 29.867-12.8s21.333 4.267 29.867 12.8l426.667 426.667c17.067 17.067 17.067 42.667 0 59.733s-42.667 17.067-59.733 0l-396.8-396.8-98.133 98.133z" />
<glyph unicode="&#xe92c;" glyph-name="check-square" d="M968.533 819.2c-17.067 17.067-42.667 17.067-59.733 0l-396.8-396.8-98.133 98.133c-17.067 17.067-42.667 17.067-59.733 0s-17.067-42.667 0-59.733l128-128c8.533-8.533 21.333-12.8 29.867-12.8s21.333 4.267 29.867 12.8l426.667 426.667c17.067 17.067 17.067 42.667 0 59.733zM896 490.667c-25.6 0-42.667-17.067-42.667-42.667v-298.667c0-25.6-17.067-42.667-42.667-42.667h-597.333c-25.6 0-42.667 17.067-42.667 42.667v597.333c0 25.6 17.067 42.667 42.667 42.667h469.333c25.6 0 42.667 17.067 42.667 42.667s-17.067 42.667-42.667 42.667h-469.333c-72.533 0-128-55.467-128-128v-597.333c0-72.533 55.467-128 128-128h597.333c72.533 0 128 55.467 128 128v298.667c0 25.6-17.067 42.667-42.667 42.667z" />
<glyph unicode="&#xe92d;" glyph-name="check" d="M883.2 733.867c-17.067 17.067-42.667 17.067-59.733 0l-439.467-439.467-183.467 183.467c-17.067 17.067-42.667 17.067-59.733 0s-17.067-42.667 0-59.733l213.333-213.333c8.533-8.533 17.067-12.8 29.867-12.8s21.333 4.267 29.867 12.8l469.333 469.333c17.067 17.067 17.067 42.667 0 59.733z" />
<glyph unicode="&#xe92e;" glyph-name="chevron-down" d="M797.867 605.867c-17.067 17.067-42.667 17.067-59.733 0l-226.133-226.133-226.133 226.133c-17.067 17.067-42.667 17.067-59.733 0s-17.067-42.667 0-59.733l256-256c8.533-8.533 21.333-12.8 29.867-12.8s21.333 4.267 29.867 12.8l256 256c17.067 17.067 17.067 42.667 0 59.733z" />
<glyph unicode="&#xe92f;" glyph-name="chevron-left" d="M443.733 448l226.133 226.133c17.067 17.067 17.067 42.667 0 59.733s-42.667 17.067-59.733 0l-256-256c-17.067-17.067-17.067-42.667 0-59.733l256-256c8.533-8.533 21.333-12.8 29.867-12.8s21.333 4.267 29.867 12.8c17.067 17.067 17.067 42.667 0 59.733l-226.133 226.133z" />
<glyph unicode="&#xe930;" glyph-name="chevron-right" d="M669.867 477.867l-256 256c-17.067 17.067-42.667 17.067-59.733 0s-17.067-42.667 0-59.733l226.133-226.133-226.133-226.133c-17.067-17.067-17.067-42.667 0-59.733 8.533-8.533 17.067-12.8 29.867-12.8s21.333 4.267 29.867 12.8l256 256c17.067 17.067 17.067 42.667 0 59.733z" />
<glyph unicode="&#xe931;" glyph-name="chevron-up" d="M797.867 349.867l-256 256c-17.067 17.067-42.667 17.067-59.733 0l-256-256c-17.067-17.067-17.067-42.667 0-59.733s42.667-17.067 59.733 0l226.133 226.133 226.133-226.133c8.533-8.533 21.333-12.8 29.867-12.8s21.333 4.267 29.867 12.8c17.067 17.067 17.067 42.667 0 59.733z" />
<glyph unicode="&#xe932;" glyph-name="chevrons-down" d="M695.467 435.2l-183.467-183.467-183.467 183.467c-17.067 17.067-42.667 17.067-59.733 0s-17.067-42.667 0-59.733l213.333-213.333c8.533-8.533 21.333-12.8 29.867-12.8s21.333 4.267 29.867 12.8l213.333 213.333c17.067 17.067 17.067 42.667 0 59.733s-42.667 17.067-59.733 0zM482.133 460.8c8.533-8.533 21.333-12.8 29.867-12.8s21.333 4.267 29.867 12.8l213.333 213.333c17.067 17.067 17.067 42.667 0 59.733s-42.667 17.067-59.733 0l-183.467-183.467-183.467 183.467c-17.067 17.067-42.667 17.067-59.733 0s-17.067-42.667 0-59.733l213.333-213.333z" />
<glyph unicode="&#xe933;" glyph-name="chevrons-left" d="M315.733 448l183.467 183.467c17.067 17.067 17.067 42.667 0 59.733s-42.667 17.067-59.733 0l-213.333-213.333c-17.067-17.067-17.067-42.667 0-59.733l213.333-213.333c8.533-8.533 21.333-12.8 29.867-12.8s21.333 4.267 29.867 12.8c17.067 17.067 17.067 42.667 0 59.733l-183.467 183.467zM614.4 448l183.467 183.467c17.067 17.067 17.067 42.667 0 59.733s-42.667 17.067-59.733 0l-213.333-213.333c-17.067-17.067-17.067-42.667 0-59.733l213.333-213.333c8.533-8.533 21.333-12.8 29.867-12.8s21.333 4.267 29.867 12.8c17.067 17.067 17.067 42.667 0 59.733l-183.467 183.467z" />
<glyph unicode="&#xe934;" glyph-name="chevrons-right" d="M797.867 477.867l-213.333 213.333c-17.067 17.067-42.667 17.067-59.733 0s-17.067-42.667 0-59.733l183.467-183.467-183.467-183.467c-17.067-17.067-17.067-42.667 0-59.733 8.533-8.533 21.333-12.8 29.867-12.8s21.333 4.267 29.867 12.8l213.333 213.333c17.067 17.067 17.067 42.667 0 59.733zM499.2 477.867l-213.333 213.333c-17.067 17.067-42.667 17.067-59.733 0s-17.067-42.667 0-59.733l183.467-183.467-183.467-183.467c-17.067-17.067-17.067-42.667 0-59.733 8.533-8.533 17.067-12.8 29.867-12.8s21.333 4.267 29.867 12.8l213.333 213.333c17.067 17.067 17.067 42.667 0 59.733z" />
<glyph unicode="&#xe935;" glyph-name="chevrons-up" d="M328.533 460.8l183.467 183.467 183.467-183.467c8.533-8.533 21.333-12.8 29.867-12.8s21.333 4.267 29.867 12.8c17.067 17.067 17.067 42.667 0 59.733l-213.333 213.333c-17.067 17.067-42.667 17.067-59.733 0l-213.333-213.333c-17.067-17.067-17.067-42.667 0-59.733s42.667-17.067 59.733 0zM541.867 435.2c-17.067 17.067-42.667 17.067-59.733 0l-213.333-213.333c-17.067-17.067-17.067-42.667 0-59.733s42.667-17.067 59.733 0l183.467 183.467 183.467-183.467c8.533-8.533 21.333-12.8 29.867-12.8s21.333 4.267 29.867 12.8c17.067 17.067 17.067 42.667 0 59.733l-213.333 213.333z" />
<glyph unicode="&#xe936;" glyph-name="chrome" d="M942.933 631.467c0 4.267 0 4.267 0 0-76.8 170.667-238.933 285.867-430.933 285.867-153.6 0-290.133-72.533-375.467-187.733 0-4.267-4.267-4.267-4.267-8.533-55.467-76.8-89.6-170.667-89.6-273.067 0-238.933 179.2-435.2 409.6-465.067 0 0 4.267 0 4.267 0 17.067 0 34.133-4.267 51.2-4.267 260.267 0 469.333 209.067 469.333 469.333 4.267 64-8.533 128-34.133 183.467zM512 832c132.267 0 251.733-68.267 320-170.667h-320c-89.6 0-162.133-55.467-196.267-128l-93.867 162.133c68.267 85.333 174.933 136.533 290.133 136.533zM640 448c0-72.533-55.467-128-128-128s-128 55.467-128 128 55.467 128 128 128 128-55.467 128-128zM128 448c0 59.733 12.8 119.467 38.4 170.667l157.867-277.333c0 0 0-4.267 4.267-4.267 38.4-59.733 106.667-102.4 183.467-102.4 8.533 0 17.067 0 25.6 4.267l-98.133-166.4c-174.933 29.867-311.467 187.733-311.467 375.467zM537.6 64l157.867 277.333c0 0 0 4.267 0 4.267 17.067 29.867 25.6 64 25.6 102.4 0 46.933-17.067 93.867-42.667 128h192c12.8-38.4 21.333-81.067 21.333-128 4.267-204.8-153.6-371.2-354.133-384z" />
<glyph unicode="&#xe937;" glyph-name="circle" d="M512 917.333c-260.267 0-469.333-209.067-469.333-469.333s209.067-469.333 469.333-469.333 469.333 209.067 469.333 469.333-209.067 469.333-469.333 469.333zM512 64c-213.333 0-384 170.667-384 384s170.667 384 384 384c213.333 0 384-170.667 384-384s-170.667-384-384-384z" />
<glyph unicode="&#xe938;" glyph-name="clipboard" d="M768 832h-42.667c0 46.933-38.4 85.333-85.333 85.333h-256c-46.933 0-85.333-38.4-85.333-85.333h-42.667c-72.533 0-128-55.467-128-128v-597.333c0-72.533 55.467-128 128-128h512c72.533 0 128 55.467 128 128v597.333c0 72.533-55.467 128-128 128zM384 832h256v-85.333h-256v42.667c0 0 0 0 0 0s0 0 0 0v42.667zM810.667 106.667c0-25.6-17.067-42.667-42.667-42.667h-512c-25.6 0-42.667 17.067-42.667 42.667v597.333c0 25.6 17.067 42.667 42.667 42.667h42.667c0-46.933 38.4-85.333 85.333-85.333h256c46.933 0 85.333 38.4 85.333 85.333h42.667c25.6 0 42.667-17.067 42.667-42.667v-597.333z" />
<glyph unicode="&#xe939;" glyph-name="clock" d="M512 917.333c-260.267 0-469.333-209.067-469.333-469.333s209.067-469.333 469.333-469.333 469.333 209.067 469.333 469.333-209.067 469.333-469.333 469.333zM512 64c-213.333 0-384 170.667-384 384s170.667 384 384 384c213.333 0 384-170.667 384-384s-170.667-384-384-384zM699.733 401.067l-145.067 72.533v230.4c0 25.6-17.067 42.667-42.667 42.667s-42.667-17.067-42.667-42.667v-256c0-17.067 8.533-29.867 25.6-38.4l170.667-85.333c4.267-4.267 8.533-4.267 17.067-4.267 17.067 0 29.867 8.533 38.4 25.6s0 42.667-21.333 55.467z" />
<glyph unicode="&#xe93a;" glyph-name="cloud-drizzle" d="M341.333 192c-25.6 0-42.667-17.067-42.667-42.667v-85.333c0-25.6 17.067-42.667 42.667-42.667s42.667 17.067 42.667 42.667v85.333c0 25.6-17.067 42.667-42.667 42.667zM341.333 448c-25.6 0-42.667-17.067-42.667-42.667v-85.333c0-25.6 17.067-42.667 42.667-42.667s42.667 17.067 42.667 42.667v85.333c0 25.6-17.067 42.667-42.667 42.667zM682.667 192c-25.6 0-42.667-17.067-42.667-42.667v-85.333c0-25.6 17.067-42.667 42.667-42.667s42.667 17.067 42.667 42.667v85.333c0 25.6-17.067 42.667-42.667 42.667zM682.667 448c-25.6 0-42.667-17.067-42.667-42.667v-85.333c0-25.6 17.067-42.667 42.667-42.667s42.667 17.067 42.667 42.667v85.333c0 25.6-17.067 42.667-42.667 42.667zM512 106.667c-25.6 0-42.667-17.067-42.667-42.667v-85.333c0-25.6 17.067-42.667 42.667-42.667s42.667 17.067 42.667 42.667v85.333c0 25.6-17.067 42.667-42.667 42.667zM512 362.667c-25.6 0-42.667-17.067-42.667-42.667v-85.333c0-25.6 17.067-42.667 42.667-42.667s42.667 17.067 42.667 42.667v85.333c0 25.6-17.067 42.667-42.667 42.667zM1002.667 550.4c-42.667 93.867-132.267 153.6-234.667 153.6h-21.333c-64 187.733-264.533 294.4-456.533 243.2-209.067-51.2-332.8-260.267-277.333-469.333 21.333-81.067 68.267-153.6 132.267-204.8 17.067-12.8 46.933-12.8 59.733 8.533 12.8 17.067 12.8 46.933-8.533 59.733-51.2 38.4-85.333 98.133-102.4 157.867-42.667 157.867 55.467 324.267 213.333 362.667 157.867 42.667 324.267-55.467 362.667-213.333 4.267-17.067 21.333-34.133 42.667-34.133h55.467c68.267 0 128-38.4 157.867-102.4 17.067-42.667 21.333-89.6 4.267-132.267s-46.933-76.8-89.6-93.867c-21.333-8.533-29.867-34.133-21.333-55.467 8.533-17.067 21.333-25.6 38.4-25.6 4.267 0 12.8 0 17.067 4.267 64 25.6 110.933 76.8 136.533 140.8 21.333 68.267 17.067 136.533-8.533 200.533z" />
<glyph unicode="&#xe93b;" glyph-name="cloud-lightning" d="M1019.733 499.2c-25.6 119.467-132.267 204.8-251.733 204.8 0 0 0 0 0 0h-21.333c-64 187.733-264.533 294.4-456.533 243.2-102.4-25.6-183.467-89.6-238.933-174.933-51.2-89.6-68.267-192-42.667-290.133 25.6-102.4 93.867-187.733 187.733-238.933 21.333-12.8 46.933-8.533 59.733 12.8s4.267 46.933-17.067 59.733c-72.533 38.4-123.733 106.667-145.067 187.733-21.333 76.8-8.533 153.6 34.133 226.133 38.4 68.267 106.667 119.467 183.467 136.533 157.867 42.667 324.267-55.467 362.667-213.333 4.267-17.067 21.333-34.133 42.667-34.133h51.2c0 0 0 0 0 0 81.067 0 149.333-55.467 166.4-136.533 17.067-93.867-42.667-183.467-132.267-200.533-21.333-4.267-38.4-25.6-34.133-51.2 4.267-21.333 21.333-34.133 42.667-34.133 4.267 0 4.267 0 8.533 0 136.533 29.867 226.133 166.4 200.533 302.933zM640 277.333h-174.933l128 187.733c12.8 21.333 8.533 46.933-12.8 59.733s-46.933 8.533-59.733-12.8l-170.667-256c-8.533-12.8-8.533-29.867 0-42.667 4.267-12.8 17.067-21.333 34.133-21.333h174.933l-128-187.733c-12.8-21.333-8.533-46.933 12.8-59.733 8.533-4.267 17.067-8.533 25.6-8.533 12.8 0 25.6 8.533 34.133 17.067l170.667 256c8.533 12.8 8.533 29.867 0 42.667s-17.067 25.6-34.133 25.6z" />
<glyph unicode="&#xe93c;" glyph-name="cloud-off" d="M409.6 746.667c128-12.8 230.4-102.4 264.533-221.867 4.267-17.067 21.333-34.133 42.667-34.133h51.2c0 0 0 0 0 0 21.333 0 46.933-4.267 68.267-12.8 85.333-38.4 128-136.533 89.6-221.867-8.533-21.333 0-46.933 21.333-55.467 4.267-4.267 12.8-4.267 17.067-4.267 17.067 0 34.133 8.533 38.4 25.6 55.467 128-4.267 281.6-136.533 337.067-29.867 8.533-64 17.067-98.133 17.067h-21.333c-51.2 140.8-179.2 243.2-328.533 256-25.6 0-42.667-17.067-46.933-38.4-4.267-25.6 17.067-42.667 38.4-46.933zM72.533 947.2c-17.067 17.067-42.667 17.067-59.733 0s-17.067-42.667 0-59.733l132.267-132.267c-64-51.2-110.933-119.467-136.533-200.533-29.867-98.133-17.067-200.533 34.133-290.133 68.267-123.733 196.267-200.533 337.067-200.533 0 0 4.267 0 4.267 0h384c21.333 0 38.4 4.267 59.733 8.533l123.733-123.733c8.533-8.533 21.333-12.8 29.867-12.8s21.333 4.267 29.867 12.8c17.067 17.067 17.067 42.667 0 59.733l-938.667 938.667zM384 149.333c-110.933-4.267-213.333 55.467-264.533 153.6-38.4 68.267-46.933 149.333-25.6 226.133 17.067 68.267 59.733 123.733 115.2 162.133l541.867-541.867h-366.933z" />
<glyph unicode="&#xe93d;" glyph-name="cloud-rain" d="M682.667 448c-25.6 0-42.667-17.067-42.667-42.667v-341.333c0-25.6 17.067-42.667 42.667-42.667s42.667 17.067 42.667 42.667v341.333c0 25.6-17.067 42.667-42.667 42.667zM341.333 448c-25.6 0-42.667-17.067-42.667-42.667v-341.333c0-25.6 17.067-42.667 42.667-42.667s42.667 17.067 42.667 42.667v341.333c0 25.6-17.067 42.667-42.667 42.667zM512 362.667c-25.6 0-42.667-17.067-42.667-42.667v-341.333c0-25.6 17.067-42.667 42.667-42.667s42.667 17.067 42.667 42.667v341.333c0 25.6-17.067 42.667-42.667 42.667zM1002.667 550.4c-42.667 93.867-132.267 153.6-234.667 153.6h-21.333c-64 187.733-264.533 294.4-456.533 243.2-209.067-51.2-332.8-260.267-277.333-469.333 21.333-81.067 68.267-153.6 132.267-204.8 17.067-12.8 46.933-12.8 59.733 8.533 12.8 17.067 12.8 46.933-8.533 59.733-51.2 38.4-85.333 98.133-102.4 157.867-42.667 157.867 55.467 324.267 213.333 362.667 157.867 42.667 324.267-55.467 362.667-213.333 4.267-17.067 21.333-34.133 42.667-34.133h55.467c68.267 0 128-38.4 157.867-102.4 17.067-42.667 21.333-89.6 4.267-132.267s-46.933-76.8-89.6-93.867c-21.333-8.533-29.867-34.133-21.333-55.467 8.533-17.067 21.333-25.6 38.4-25.6 4.267 0 12.8 0 17.067 4.267 64 25.6 110.933 76.8 136.533 140.8 21.333 68.267 17.067 136.533-8.533 200.533z" />
<glyph unicode="&#xe93e;" glyph-name="cloud-snow" d="M1002.667 507.733c-42.667 93.867-132.267 153.6-234.667 153.6h-21.333c-64 187.733-264.533 294.4-456.533 243.2-209.067-51.2-332.8-260.267-277.333-469.333 21.333-81.067 68.267-153.6 132.267-204.8 17.067-12.8 46.933-12.8 59.733 8.533 12.8 17.067 12.8 46.933-8.533 59.733-51.2 38.4-85.333 98.133-102.4 157.867-42.667 157.867 55.467 324.267 213.333 362.667 157.867 42.667 324.267-55.467 362.667-213.333 4.267-17.067 21.333-34.133 42.667-34.133h55.467c68.267 0 128-38.4 157.867-102.4 17.067-42.667 21.333-89.6 4.267-132.267s-46.933-76.8-89.6-93.867c-21.333-8.533-29.867-34.133-21.333-55.467 8.533-17.067 21.333-25.6 38.4-25.6 4.267 0 12.8 0 17.067 4.267 64 25.6 110.933 76.8 136.533 140.8 21.333 68.267 17.067 136.533-8.533 200.533zM341.333 320v0c-25.6 0-42.667-17.067-42.667-42.667s21.333-42.667 42.667-42.667 42.667 17.067 42.667 42.667-17.067 42.667-42.667 42.667zM341.333 149.333v0c-25.6 0-42.667-17.067-42.667-42.667s21.333-42.667 42.667-42.667 42.667 17.067 42.667 42.667-17.067 42.667-42.667 42.667zM512 234.667v0c-25.6 0-42.667-17.067-42.667-42.667s21.333-42.667 42.667-42.667 42.667 17.067 42.667 42.667-17.067 42.667-42.667 42.667zM512 64v0c-25.6 0-42.667-17.067-42.667-42.667s21.333-42.667 42.667-42.667 42.667 17.067 42.667 42.667-17.067 42.667-42.667 42.667zM682.667 320v0c-25.6 0-42.667-17.067-42.667-42.667s21.333-42.667 42.667-42.667 42.667 17.067 42.667 42.667-17.067 42.667-42.667 42.667zM682.667 149.333v0c-25.6 0-42.667-17.067-42.667-42.667s21.333-42.667 42.667-42.667 42.667 17.067 42.667 42.667-17.067 42.667-42.667 42.667z" />
<glyph unicode="&#xe93f;" glyph-name="cloud" d="M768 576h-21.333c-29.867 85.333-89.6 157.867-166.4 204.8-89.6 51.2-192 68.267-290.133 42.667-102.4-29.867-183.467-93.867-238.933-179.2-51.2-89.6-68.267-192-42.667-290.133 42.667-170.667 196.267-290.133 371.2-290.133 0 0 0 0 0 0h384c140.8 0 256 115.2 256 256s-110.933 256-251.733 256zM768 149.333h-384c0 0 0 0 0 0-136.533 0-256 93.867-290.133 221.867-21.333 81.067-8.533 157.867 34.133 230.4s106.667 119.467 183.467 136.533c21.333 4.267 46.933 8.533 72.533 8.533 132.267 0 256-89.6 290.133-226.133 4.267-17.067 21.333-34.133 42.667-34.133h51.2c93.867 0 170.667-76.8 170.667-170.667 0-89.6-76.8-166.4-170.667-166.4z" />
<glyph unicode="&#xe940;" glyph-name="code" d="M968.533 477.867l-256 256c-17.067 17.067-42.667 17.067-59.733 0s-17.067-42.667 0-59.733l226.133-226.133-226.133-226.133c-17.067-17.067-17.067-42.667 0-59.733 8.533-8.533 21.333-12.8 29.867-12.8s21.333 4.267 29.867 12.8l256 256c17.067 17.067 17.067 42.667 0 59.733zM371.2 733.867c-17.067 17.067-42.667 17.067-59.733 0l-256-256c-17.067-17.067-17.067-42.667 0-59.733l256-256c8.533-8.533 17.067-12.8 29.867-12.8s21.333 4.267 29.867 12.8c17.067 17.067 17.067 42.667 0 59.733l-226.133 226.133 226.133 226.133c17.067 17.067 17.067 42.667 0 59.733z" />
<glyph unicode="&#xe941;" glyph-name="codepen" d="M981.333 290.133c0 4.267 0 4.267 0 8.533v298.667c0 4.267 0 4.267 0 8.533 0 0 0 0 0 4.267s-4.267 8.533-4.267 12.8c0 0 0 0 0 0s0 0 0 0c-4.267 4.267-4.267 8.533-8.533 8.533v0c0 0 0 0 0 0l-426.667 277.333c0 0-4.267 0-4.267 0s-4.267 0-4.267 0c-8.533 4.267-21.333 4.267-29.867 0 0 0-4.267 0-4.267 0s-4.267 0-4.267 0l-426.667-277.333c-8.533 0-12.8-4.267-17.067-8.533 0 0 0 0 0 0s0 0 0 0c-4.267-8.533-4.267-12.8-8.533-17.067 0 0 0 0 0-4.267s0-4.267 0-8.533v-298.667c0-4.267 0-4.267 0-8.533 0 0 0 0 0-4.267s4.267-8.533 4.267-12.8c0 0 0 0 0 0s0 0 0 0c4.267-4.267 4.267-8.533 8.533-8.533l426.667-277.333c0 0 4.267 0 4.267 0s4.267 0 4.267 0 8.533-4.267 12.8-4.267 8.533 0 12.8 4.267c0 0 4.267 0 4.267 0s4.267 0 4.267 0l426.667 277.333c4.267 4.267 8.533 8.533 12.8 8.533 0 0 0 0 0 0s0 0 0 0c12.8 12.8 12.8 17.067 17.067 21.333 0 0 0 0 0 0zM128 516.267l98.133-68.267-98.133-68.267v136.533zM512 349.867l-140.8 98.133 140.8 98.133 140.8-98.133-140.8-98.133zM554.667 618.667v179.2l307.2-200.533-136.533-98.133-170.667 119.467zM469.333 618.667l-170.667-119.467-136.533 98.133 307.2 200.533v-179.2zM298.667 396.8l170.667-119.467v-174.933l-307.2 200.533 136.533 93.867zM554.667 277.333l170.667 119.467 136.533-93.867-307.2-204.8v179.2zM797.867 448l98.133 68.267v-136.533l-98.133 68.267z" />
<glyph unicode="&#xe942;" glyph-name="codesandbox" d="M925.867 674.133c0 4.267 0 4.267-4.267 8.533s-8.533 8.533-8.533 12.8c-8.533 12.8-21.333 25.6-38.4 34.133l-140.8 81.067c-4.267 4.267-12.8 8.533-21.333 12.8l-136.533 76.8c-38.4 21.333-89.6 21.333-128 0l-136.533-76.8c-8.533 0-12.8-4.267-21.333-12.8l-140.8-81.067c-12.8-8.533-25.6-21.333-38.4-34.133 0-4.267-4.267-8.533-8.533-12.8 0-4.267 0-4.267-4.267-8.533-8.533-17.067-12.8-34.133-12.8-55.467v-341.333c0-46.933 25.6-89.6 64-110.933l140.8-81.067c4.267-4.267 12.8-8.533 21.333-12.8l136.533-81.067c12.8-8.533 29.867-12.8 42.667-12.8 4.267-4.267 12.8-4.267 21.333-4.267s12.8 4.267 21.333 4.267 29.867 8.533 42.667 12.8l140.8 81.067c8.533 0 17.067 4.267 21.333 12.8l140.8 81.067c38.4 21.333 64 64 64 110.933v0 341.333c-4.267 21.333-8.533 38.4-17.067 55.467zM512 494.933l-298.667 170.667 106.667 59.733 170.667-98.133c8.533-4.267 12.8-4.267 21.333-4.267s12.8 0 21.333 4.267l166.4 98.133 110.933-55.467-298.667-174.933zM490.667 827.733c8.533 4.267 12.8 4.267 21.333 4.267s12.8 0 21.333-4.267l81.067-46.933-102.4-64-102.4 64 81.067 46.933zM170.667 277.333v98.133l106.667-59.733v-123.733l-85.333 46.933c-12.8 8.533-21.333 21.333-21.333 38.4zM362.667 140.8v196.267c0 17.067-8.533 29.867-21.333 38.4l-170.667 98.133v123.733l298.667-170.667v-341.333l-106.667 55.467zM554.667 81.067v341.333l298.667 170.667v-123.733l-170.667-98.133c-12.8-8.533-21.333-21.333-21.333-38.4v-196.267l-106.667-55.467zM832 238.933l-85.333-46.933v119.467l106.667 59.733v-93.867c0-17.067-8.533-29.867-21.333-38.4z" />
<glyph unicode="&#xe943;" glyph-name="coffee" d="M810.667 661.333h-725.333c-25.6 0-42.667-17.067-42.667-42.667v-384c0-119.467 93.867-213.333 213.333-213.333h341.333c119.467 0 213.333 93.867 213.333 213.333 119.467 0 213.333 93.867 213.333 213.333s-93.867 213.333-213.333 213.333zM725.333 234.667c0-72.533-55.467-128-128-128h-341.333c-72.533 0-128 55.467-128 128v341.333h597.333v-341.333zM810.667 320v256c72.533 0 128-55.467 128-128s-55.467-128-128-128zM256 746.667c25.6 0 42.667 17.067 42.667 42.667v128c0 25.6-17.067 42.667-42.667 42.667s-42.667-17.067-42.667-42.667v-128c0-25.6 17.067-42.667 42.667-42.667zM426.667 746.667c25.6 0 42.667 17.067 42.667 42.667v128c0 25.6-17.067 42.667-42.667 42.667s-42.667-17.067-42.667-42.667v-128c0-25.6 17.067-42.667 42.667-42.667zM597.333 746.667c25.6 0 42.667 17.067 42.667 42.667v128c0 25.6-17.067 42.667-42.667 42.667s-42.667-17.067-42.667-42.667v-128c0-25.6 17.067-42.667 42.667-42.667z" />
<glyph unicode="&#xe944;" glyph-name="columns" d="M810.667 874.667h-597.333c-72.533 0-128-55.467-128-128v-597.333c0-72.533 55.467-128 128-128h597.333c72.533 0 128 55.467 128 128v597.333c0 72.533-55.467 128-128 128zM469.333 106.667h-256c-25.6 0-42.667 17.067-42.667 42.667v597.333c0 25.6 17.067 42.667 42.667 42.667h256v-682.667zM853.333 149.333c0-25.6-17.067-42.667-42.667-42.667h-256v682.667h256c25.6 0 42.667-17.067 42.667-42.667v-597.333z" />
<glyph unicode="&#xe945;" glyph-name="command" d="M768 362.667h-85.333v170.667h85.333c93.867 0 170.667 76.8 170.667 170.667s-76.8 170.667-170.667 170.667-170.667-76.8-170.667-170.667v-85.333h-170.667v85.333c0 93.867-76.8 170.667-170.667 170.667s-170.667-76.8-170.667-170.667 76.8-170.667 170.667-170.667h85.333v-170.667h-85.333c-93.867 0-170.667-76.8-170.667-170.667s76.8-170.667 170.667-170.667 170.667 76.8 170.667 170.667v85.333h170.667v-85.333c0-93.867 76.8-170.667 170.667-170.667s170.667 76.8 170.667 170.667-76.8 170.667-170.667 170.667zM682.667 704c0 46.933 38.4 85.333 85.333 85.333s85.333-38.4 85.333-85.333-38.4-85.333-85.333-85.333h-85.333v85.333zM341.333 192c0-46.933-38.4-85.333-85.333-85.333s-85.333 38.4-85.333 85.333 38.4 85.333 85.333 85.333h85.333v-85.333zM341.333 618.667h-85.333c-46.933 0-85.333 38.4-85.333 85.333s38.4 85.333 85.333 85.333 85.333-38.4 85.333-85.333v-85.333zM597.333 362.667h-170.667v170.667h170.667v-170.667zM768 106.667c-46.933 0-85.333 38.4-85.333 85.333v85.333h85.333c46.933 0 85.333-38.4 85.333-85.333s-38.4-85.333-85.333-85.333z" />
<glyph unicode="&#xe946;" glyph-name="compass" d="M512 917.333c-260.267 0-469.333-209.067-469.333-469.333s209.067-469.333 469.333-469.333 469.333 209.067 469.333 469.333-209.067 469.333-469.333 469.333zM512 64c-213.333 0-384 170.667-384 384s170.667 384 384 384c213.333 0 384-170.667 384-384s-170.667-384-384-384zM678.4 669.867l-268.8-89.6c-12.8-4.267-25.6-17.067-29.867-29.867l-89.6-273.067c-4.267-17.067 0-34.133 8.533-42.667s17.067-12.8 29.867-12.8c4.267 0 8.533 0 12.8 4.267l273.067 89.6c12.8 4.267 21.333 12.8 25.6 25.6l89.6 273.067c4.267 17.067 0 34.133-8.533 42.667-8.533 12.8-25.6 17.067-42.667 12.8zM567.467 392.533l-170.667-55.467 55.467 170.667 170.667 55.467-55.467-170.667z" />
<glyph unicode="&#xe947;" glyph-name="copy" d="M853.333 618.667h-384c-72.533 0-128-55.467-128-128v-384c0-72.533 55.467-128 128-128h384c72.533 0 128 55.467 128 128v384c0 72.533-55.467 128-128 128zM896 106.667c0-25.6-17.067-42.667-42.667-42.667h-384c-25.6 0-42.667 17.067-42.667 42.667v384c0 25.6 17.067 42.667 42.667 42.667h384c25.6 0 42.667-17.067 42.667-42.667v-384zM213.333 362.667h-42.667c-25.6 0-42.667 17.067-42.667 42.667v384c0 25.6 17.067 42.667 42.667 42.667h384c25.6 0 42.667-17.067 42.667-42.667v-42.667c0-25.6 17.067-42.667 42.667-42.667s42.667 17.067 42.667 42.667v42.667c0 72.533-55.467 128-128 128h-384c-72.533 0-128-55.467-128-128v-384c0-72.533 55.467-128 128-128h42.667c25.6 0 42.667 17.067 42.667 42.667s-17.067 42.667-42.667 42.667z" />
<glyph unicode="&#xe948;" glyph-name="corner-down-left" d="M853.333 832c-25.6 0-42.667-17.067-42.667-42.667v-298.667c0-72.533-55.467-128-128-128h-409.6l140.8 140.8c17.067 17.067 17.067 42.667 0 59.733s-42.667 17.067-59.733 0l-213.333-213.333c-4.267-4.267-8.533-8.533-8.533-12.8-4.267-8.533-4.267-21.333 0-34.133 4.267-4.267 4.267-8.533 8.533-12.8l213.333-213.333c8.533-8.533 17.067-12.8 29.867-12.8s21.333 4.267 29.867 12.8c17.067 17.067 17.067 42.667 0 59.733l-140.8 140.8h409.6c119.467 0 213.333 93.867 213.333 213.333v298.667c0 25.6-17.067 42.667-42.667 42.667z" />
<glyph unicode="&#xe949;" glyph-name="corner-down-right" d="M891.733 302.933c4.267 8.533 4.267 21.333 0 34.133-4.267 4.267-4.267 8.533-8.533 12.8l-213.333 213.333c-17.067 17.067-42.667 17.067-59.733 0s-17.067-42.667 0-59.733l140.8-140.8h-409.6c-72.533 0-128 55.467-128 128v298.667c0 25.6-17.067 42.667-42.667 42.667s-42.667-17.067-42.667-42.667v-298.667c0-119.467 93.867-213.333 213.333-213.333h409.6l-140.8-140.8c-17.067-17.067-17.067-42.667 0-59.733 8.533-8.533 21.333-12.8 29.867-12.8s21.333 4.267 29.867 12.8l213.333 213.333c4.267 4.267 8.533 8.533 8.533 12.8z" />
<glyph unicode="&#xe94a;" glyph-name="corner-left-down" d="M853.333 832h-298.667c-119.467 0-213.333-93.867-213.333-213.333v-409.6l-140.8 140.8c-17.067 17.067-42.667 17.067-59.733 0s-17.067-42.667 0-59.733l213.333-213.333c4.267-4.267 8.533-8.533 12.8-8.533 4.267-4.267 12.8-4.267 17.067-4.267s12.8 0 17.067 4.267c4.267 4.267 8.533 4.267 12.8 8.533l213.333 213.333c17.067 17.067 17.067 42.667 0 59.733s-42.667 17.067-59.733 0l-140.8-140.8v409.6c0 72.533 55.467 128 128 128h298.667c25.6 0 42.667 17.067 42.667 42.667s-17.067 42.667-42.667 42.667z" />
<glyph unicode="&#xe94b;" glyph-name="corner-left-up" d="M853.333 149.333h-298.667c-72.533 0-128 55.467-128 128v409.6l140.8-140.8c8.533-8.533 17.067-12.8 29.867-12.8s21.333 4.267 29.867 12.8c17.067 17.067 17.067 42.667 0 59.733l-213.333 213.333c-4.267 4.267-8.533 8.533-12.8 8.533-12.8 4.267-21.333 4.267-34.133 0-4.267 0-8.533-4.267-12.8-8.533l-213.333-213.333c-17.067-17.067-17.067-42.667 0-59.733s42.667-17.067 59.733 0l140.8 140.8v-409.6c0-119.467 93.867-213.333 213.333-213.333h298.667c25.6 0 42.667 17.067 42.667 42.667s-17.067 42.667-42.667 42.667z" />
<glyph unicode="&#xe94c;" glyph-name="corner-right-down" d="M883.2 349.867c-17.067 17.067-42.667 17.067-59.733 0l-140.8-140.8v409.6c0 119.467-93.867 213.333-213.333 213.333h-298.667c-25.6 0-42.667-17.067-42.667-42.667s17.067-42.667 42.667-42.667h298.667c72.533 0 128-55.467 128-128v-409.6l-140.8 140.8c-17.067 17.067-42.667 17.067-59.733 0s-17.067-42.667 0-59.733l213.333-213.333c4.267-4.267 8.533-8.533 12.8-8.533 4.267-4.267 12.8-4.267 17.067-4.267s12.8 0 17.067 4.267c4.267 4.267 8.533 4.267 12.8 8.533l213.333 213.333c17.067 17.067 17.067 42.667 0 59.733z" />
<glyph unicode="&#xe94d;" glyph-name="corner-right-up" d="M883.2 605.867l-213.333 213.333c-4.267 4.267-8.533 8.533-12.8 8.533-8.533 4.267-21.333 4.267-34.133 0-4.267-4.267-8.533-4.267-12.8-8.533l-213.333-213.333c-17.067-17.067-17.067-42.667 0-59.733s42.667-17.067 59.733 0l140.8 140.8v-409.6c0-72.533-55.467-128-128-128h-298.667c-25.6 0-42.667-17.067-42.667-42.667s17.067-42.667 42.667-42.667h298.667c119.467 0 213.333 93.867 213.333 213.333v409.6l140.8-140.8c8.533-8.533 17.067-12.8 29.867-12.8s21.333 4.267 29.867 12.8c17.067 17.067 17.067 42.667 0 59.733z" />
<glyph unicode="&#xe94e;" glyph-name="corner-up-left" d="M682.667 618.667h-409.6l140.8 140.8c17.067 17.067 17.067 42.667 0 59.733s-42.667 17.067-59.733 0l-213.333-213.333c-4.267-4.267-8.533-8.533-8.533-12.8-4.267-12.8-4.267-21.333 0-34.133 4.267-4.267 4.267-8.533 8.533-12.8l213.333-213.333c8.533-8.533 17.067-12.8 29.867-12.8s21.333 4.267 29.867 12.8c17.067 17.067 17.067 42.667 0 59.733l-140.8 140.8h409.6c72.533 0 128-55.467 128-128v-298.667c0-25.6 17.067-42.667 42.667-42.667s42.667 17.067 42.667 42.667v298.667c0 119.467-93.867 213.333-213.333 213.333z" />
<glyph unicode="&#xe94f;" glyph-name="corner-up-right" d="M891.733 558.933c4.267 8.533 4.267 21.333 0 34.133-4.267 4.267-4.267 8.533-8.533 12.8l-213.333 213.333c-17.067 17.067-42.667 17.067-59.733 0s-17.067-42.667 0-59.733l140.8-140.8h-409.6c-119.467 0-213.333-93.867-213.333-213.333v-298.667c0-25.6 17.067-42.667 42.667-42.667s42.667 17.067 42.667 42.667v298.667c0 72.533 55.467 128 128 128h409.6l-140.8-140.8c-17.067-17.067-17.067-42.667 0-59.733 8.533-8.533 21.333-12.8 29.867-12.8s21.333 4.267 29.867 12.8l213.333 213.333c4.267 4.267 8.533 8.533 8.533 12.8z" />
<glyph unicode="&#xe950;" glyph-name="cpu" d="M640 618.667h-256c-25.6 0-42.667-17.067-42.667-42.667v-256c0-25.6 17.067-42.667 42.667-42.667h256c25.6 0 42.667 17.067 42.667 42.667v256c0 25.6-17.067 42.667-42.667 42.667zM597.333 362.667h-170.667v170.667h170.667v-170.667zM981.333 405.333h-85.333v128h85.333c25.6 0 42.667 17.067 42.667 42.667s-17.067 42.667-42.667 42.667h-85.333v85.333c0 72.533-55.467 128-128 128h-85.333v85.333c0 25.6-17.067 42.667-42.667 42.667s-42.667-17.067-42.667-42.667v-85.333h-170.667v85.333c0 25.6-17.067 42.667-42.667 42.667s-42.667-17.067-42.667-42.667v-85.333h-85.333c-72.533 0-128-55.467-128-128v-85.333h-85.333c-25.6 0-42.667-17.067-42.667-42.667s17.067-42.667 42.667-42.667h85.333v-128h-85.333c-25.6 0-42.667-17.067-42.667-42.667s17.067-42.667 42.667-42.667h85.333v-128c0-72.533 55.467-128 128-128h85.333v-85.333c0-25.6 17.067-42.667 42.667-42.667s42.667 17.067 42.667 42.667v85.333h170.667v-85.333c0-25.6 17.067-42.667 42.667-42.667s42.667 17.067 42.667 42.667v85.333h85.333c72.533 0 128 55.467 128 128v128h85.333c25.6 0 42.667 17.067 42.667 42.667s-17.067 42.667-42.667 42.667zM810.667 192c0-25.6-17.067-42.667-42.667-42.667h-512c-25.6 0-42.667 17.067-42.667 42.667v512c0 25.6 17.067 42.667 42.667 42.667h512c25.6 0 42.667-17.067 42.667-42.667v-512z" />
<glyph unicode="&#xe951;" glyph-name="credit-card" d="M896 832h-768c-72.533 0-128-55.467-128-128v-512c0-72.533 55.467-128 128-128h768c72.533 0 128 55.467 128 128v512c0 72.533-55.467 128-128 128zM128 746.667h768c25.6 0 42.667-17.067 42.667-42.667v-128h-853.333v128c0 25.6 17.067 42.667 42.667 42.667zM896 149.333h-768c-25.6 0-42.667 17.067-42.667 42.667v298.667h853.333v-298.667c0-25.6-17.067-42.667-42.667-42.667z" />
<glyph unicode="&#xe952;" glyph-name="crop" d="M981.333 234.667h-170.667v384c0 72.533-55.467 128-128 128l-379.733-4.267v174.933c0 25.6-17.067 42.667-42.667 42.667 0 0 0 0 0 0-21.333 0-42.667-17.067-42.667-42.667v-174.933h-174.933c-25.6 0-42.667-21.333-42.667-42.667s21.333-42.667 42.667-42.667c0 0 0 0 0 0h174.933l-4.267-379.733c0-72.533 55.467-128 128-128h384v-170.667c0-25.6 17.067-42.667 42.667-42.667s42.667 17.067 42.667 42.667v170.667h170.667c25.6 0 42.667 17.067 42.667 42.667s-17.067 42.667-42.667 42.667zM341.333 234.667c-25.6 0-42.667 17.067-42.667 42.667l4.267 379.733 379.733 4.267c25.6 0 42.667-17.067 42.667-42.667v-384h-384z" />
<glyph unicode="&#xe953;" glyph-name="crosshair" d="M512 917.333c-260.267 0-469.333-209.067-469.333-469.333s209.067-469.333 469.333-469.333 469.333 209.067 469.333 469.333-209.067 469.333-469.333 469.333zM554.667 68.267v123.733c0 25.6-17.067 42.667-42.667 42.667s-42.667-17.067-42.667-42.667v-123.733c-179.2 21.333-320 162.133-337.067 337.067h123.733c25.6 0 42.667 17.067 42.667 42.667s-17.067 42.667-42.667 42.667h-123.733c17.067 179.2 157.867 320 337.067 337.067v-123.733c0-25.6 17.067-42.667 42.667-42.667s42.667 17.067 42.667 42.667v123.733c179.2-21.333 320-162.133 337.067-337.067h-123.733c-25.6 0-42.667-17.067-42.667-42.667s17.067-42.667 42.667-42.667h123.733c-17.067-179.2-157.867-320-337.067-337.067z" />
<glyph unicode="&#xe954;" glyph-name="database" d="M512 917.333c-204.8 0-426.667-55.467-426.667-170.667v-597.333c0-115.2 221.867-170.667 426.667-170.667s426.667 55.467 426.667 170.667v597.333c0 115.2-221.867 170.667-426.667 170.667zM853.333 448c0-21.333-106.667-85.333-341.333-85.333s-341.333 64-341.333 85.333v192c81.067-42.667 213.333-64 341.333-64s260.267 21.333 341.333 64v-192zM512 832c221.867 0 341.333-64 341.333-85.333s-119.467-85.333-341.333-85.333c-221.867 0-341.333 64-341.333 85.333s119.467 85.333 341.333 85.333zM512 64c-234.667 0-341.333 64-341.333 85.333v192c81.067-42.667 213.333-64 341.333-64s260.267 21.333 341.333 64v-192c0-21.333-106.667-85.333-341.333-85.333z" />
<glyph unicode="&#xe955;" glyph-name="delete" d="M896 832h-554.667c-12.8 0-25.6-4.267-34.133-12.8l-298.667-341.333c-12.8-17.067-12.8-38.4 0-55.467l298.667-341.333c8.533-12.8 21.333-17.067 34.133-17.067h554.667c72.533 0 128 55.467 128 128v512c0 72.533-55.467 128-128 128zM938.667 192c0-25.6-17.067-42.667-42.667-42.667h-533.333l-260.267 298.667 260.267 298.667h533.333c25.6 0 42.667-17.067 42.667-42.667v-512zM797.867 605.867c-17.067 17.067-42.667 17.067-59.733 0l-98.133-98.133-98.133 98.133c-17.067 17.067-42.667 17.067-59.733 0s-17.067-42.667 0-59.733l98.133-98.133-98.133-98.133c-17.067-17.067-17.067-42.667 0-59.733 8.533-8.533 21.333-12.8 29.867-12.8s21.333 4.267 29.867 12.8l98.133 98.133 98.133-98.133c8.533-8.533 21.333-12.8 29.867-12.8s21.333 4.267 29.867 12.8c17.067 17.067 17.067 42.667 0 59.733l-98.133 98.133 98.133 98.133c17.067 17.067 17.067 42.667 0 59.733z" />
<glyph unicode="&#xe956;" glyph-name="disc" d="M512 917.333c-260.267 0-469.333-209.067-469.333-469.333s209.067-469.333 469.333-469.333 469.333 209.067 469.333 469.333-209.067 469.333-469.333 469.333zM512 64c-213.333 0-384 170.667-384 384s170.667 384 384 384c213.333 0 384-170.667 384-384s-170.667-384-384-384zM512 618.667c-93.867 0-170.667-76.8-170.667-170.667s76.8-170.667 170.667-170.667c93.867 0 170.667 76.8 170.667 170.667s-76.8 170.667-170.667 170.667zM512 362.667c-46.933 0-85.333 38.4-85.333 85.333s38.4 85.333 85.333 85.333c46.933 0 85.333-38.4 85.333-85.333s-38.4-85.333-85.333-85.333z" />
<glyph unicode="&#xe957;" glyph-name="divide-circle" d="M682.667 490.667h-341.333c-25.6 0-42.667-17.067-42.667-42.667s17.067-42.667 42.667-42.667h341.333c25.6 0 42.667 17.067 42.667 42.667s-17.067 42.667-42.667 42.667zM541.867 307.2c-4.267 4.267-8.533 8.533-12.8 8.533-8.533 4.267-21.333 4.267-34.133 0-4.267 0-8.533-4.267-12.8-8.533s-8.533-8.533-8.533-12.8c0-4.267-4.267-8.533-4.267-17.067 0-12.8 4.267-21.333 12.8-29.867 4.267-4.267 8.533-8.533 12.8-8.533s8.533-4.267 17.067-4.267c12.8 0 21.333 4.267 29.867 12.8s12.8 17.067 12.8 29.867c0 4.267 0 12.8-4.267 17.067 0 4.267-4.267 8.533-8.533 12.8zM494.933 580.267c4.267-4.267 12.8-4.267 17.067-4.267s4.267 0 8.533 0 4.267 0 8.533 4.267c4.267 0 4.267 4.267 8.533 4.267 0 0 4.267 4.267 4.267 4.267 8.533 8.533 12.8 17.067 12.8 29.867 0 4.267 0 4.267 0 8.533s0 4.267-4.267 8.533c0 4.267-4.267 4.267-4.267 8.533s-4.267 4.267-4.267 4.267c-12.8 12.8-29.867 17.067-46.933 8.533-4.267-4.267-8.533-4.267-12.8-8.533 0 0-4.267-4.267-4.267-4.267 0-4.267-4.267-4.267-4.267-8.533s0-4.267-4.267-8.533c0-4.267 0-4.267 0-8.533 0-12.8 4.267-21.333 12.8-29.867 4.267-4.267 8.533-8.533 12.8-8.533zM512 917.333c-260.267 0-469.333-209.067-469.333-469.333s209.067-469.333 469.333-469.333 469.333 209.067 469.333 469.333-209.067 469.333-469.333 469.333zM512 64c-213.333 0-384 170.667-384 384s170.667 384 384 384c213.333 0 384-170.667 384-384s-170.667-384-384-384z" />
<glyph unicode="&#xe958;" glyph-name="divide-square" d="M810.667 874.667h-597.333c-72.533 0-128-55.467-128-128v-597.333c0-72.533 55.467-128 128-128h597.333c72.533 0 128 55.467 128 128v597.333c0 72.533-55.467 128-128 128zM853.333 149.333c0-25.6-17.067-42.667-42.667-42.667h-597.333c-25.6 0-42.667 17.067-42.667 42.667v597.333c0 25.6 17.067 42.667 42.667 42.667h597.333c25.6 0 42.667-17.067 42.667-42.667v-597.333zM682.667 490.667h-341.333c-25.6 0-42.667-17.067-42.667-42.667s17.067-42.667 42.667-42.667h341.333c25.6 0 42.667 17.067 42.667 42.667s-17.067 42.667-42.667 42.667zM541.867 307.2c-4.267 4.267-8.533 8.533-12.8 8.533-8.533 4.267-21.333 4.267-34.133 0-4.267 0-8.533-4.267-12.8-8.533s-8.533-8.533-8.533-12.8c0-4.267-4.267-8.533-4.267-17.067 0-12.8 4.267-21.333 12.8-29.867 4.267-4.267 8.533-8.533 12.8-8.533s8.533-4.267 17.067-4.267c12.8 0 21.333 4.267 29.867 12.8s12.8 17.067 12.8 29.867c0 4.267 0 12.8-4.267 17.067 0 4.267-4.267 8.533-8.533 12.8zM494.933 580.267c4.267-4.267 12.8-4.267 17.067-4.267s4.267 0 8.533 0 4.267 0 8.533 4.267c4.267 0 4.267 4.267 8.533 4.267 0 0 4.267 4.267 4.267 4.267 8.533 8.533 12.8 17.067 12.8 29.867 0 4.267 0 4.267 0 8.533s0 4.267-4.267 8.533c0 4.267-4.267 4.267-4.267 8.533s-4.267 4.267-4.267 4.267c-12.8 12.8-29.867 17.067-46.933 8.533-4.267-4.267-8.533-4.267-12.8-8.533 0 0-4.267-4.267-4.267-4.267 0-4.267-4.267-4.267-4.267-8.533s0-4.267-4.267-8.533c0-4.267 0-4.267 0-8.533 0-12.8 4.267-21.333 12.8-29.867 4.267-4.267 8.533-8.533 12.8-8.533z" />
<glyph unicode="&#xe959;" glyph-name="divide" d="M512 576c72.533 0 128 55.467 128 128s-55.467 128-128 128-128-55.467-128-128 55.467-128 128-128zM512 746.667c25.6 0 42.667-17.067 42.667-42.667s-17.067-42.667-42.667-42.667-42.667 17.067-42.667 42.667 17.067 42.667 42.667 42.667zM810.667 490.667h-597.333c-25.6 0-42.667-17.067-42.667-42.667s17.067-42.667 42.667-42.667h597.333c25.6 0 42.667 17.067 42.667 42.667s-17.067 42.667-42.667 42.667zM512 320c-72.533 0-128-55.467-128-128s55.467-128 128-128 128 55.467 128 128-55.467 128-128 128zM512 149.333c-25.6 0-42.667 17.067-42.667 42.667s17.067 42.667 42.667 42.667 42.667-17.067 42.667-42.667-17.067-42.667-42.667-42.667z" />
<glyph unicode="&#xe95a;" glyph-name="dollar-sign" d="M618.667 490.667h-64v213.333h170.667c25.6 0 42.667 17.067 42.667 42.667s-17.067 42.667-42.667 42.667h-170.667v128c0 25.6-17.067 42.667-42.667 42.667s-42.667-17.067-42.667-42.667v-128h-64c-106.667 0-192-85.333-192-192s85.333-192 192-192h64v-213.333h-213.333c-25.6 0-42.667-17.067-42.667-42.667s17.067-42.667 42.667-42.667h213.333v-128c0-25.6 17.067-42.667 42.667-42.667s42.667 17.067 42.667 42.667v128h64c106.667 0 192 85.333 192 192s-85.333 192-192 192zM405.333 490.667c-59.733 0-106.667 46.933-106.667 106.667s46.933 106.667 106.667 106.667h64v-213.333h-64zM618.667 192h-64v213.333h64c59.733 0 106.667-46.933 106.667-106.667s-46.933-106.667-106.667-106.667z" />
<glyph unicode="&#xe95b;" glyph-name="download-cloud" d="M652.8 264.533l-98.133-98.133v281.6c0 25.6-17.067 42.667-42.667 42.667s-42.667-17.067-42.667-42.667v-281.6l-98.133 98.133c-17.067 17.067-42.667 17.067-59.733 0s-17.067-42.667 0-59.733l170.667-170.667c4.267-4.267 8.533-8.533 12.8-8.533 4.267-4.267 12.8-4.267 17.067-4.267s12.8 0 17.067 4.267c4.267 4.267 8.533 4.267 12.8 8.533l170.667 170.667c17.067 17.067 17.067 42.667 0 59.733s-42.667 17.067-59.733 0zM977.067 512c-46.933 64-123.733 106.667-209.067 106.667 0 0 0 0 0 0h-21.333c-64 187.733-264.533 294.4-456.533 243.2-102.4-25.6-183.467-85.333-238.933-174.933-51.2-89.6-68.267-192-42.667-290.133 17.067-59.733 42.667-115.2 85.333-157.867 17.067-17.067 42.667-21.333 59.733-4.267s21.333 42.667 4.267 59.733c-29.867 34.133-55.467 76.8-64 123.733-21.333 76.8-8.533 157.867 34.133 226.133s106.667 119.467 183.467 136.533c157.867 42.667 324.267-55.467 362.667-213.333 4.267-17.067 21.333-34.133 42.667-34.133h51.2c0 0 0 0 0 0 55.467 0 106.667-25.6 140.8-72.533 25.6-38.4 38.4-81.067 29.867-128s-34.133-85.333-68.267-110.933c-21.333-12.8-25.6-38.4-8.533-59.733 8.533-12.8 21.333-17.067 34.133-17.067 8.533 0 17.067 4.267 25.6 8.533 55.467 38.4 93.867 98.133 106.667 166.4s-12.8 132.267-51.2 192z" />
<glyph unicode="&#xe95c;" glyph-name="download" d="M896 362.667c-25.6 0-42.667-17.067-42.667-42.667v-170.667c0-25.6-17.067-42.667-42.667-42.667h-597.333c-25.6 0-42.667 17.067-42.667 42.667v170.667c0 25.6-17.067 42.667-42.667 42.667s-42.667-17.067-42.667-42.667v-170.667c0-72.533 55.467-128 128-128h597.333c72.533 0 128 55.467 128 128v170.667c0 25.6-17.067 42.667-42.667 42.667zM482.133 290.133c4.267-4.267 8.533-8.533 12.8-8.533 4.267-4.267 12.8-4.267 17.067-4.267s12.8 0 17.067 4.267c4.267 4.267 8.533 4.267 12.8 8.533l213.333 213.333c17.067 17.067 17.067 42.667 0 59.733s-42.667 17.067-59.733 0l-140.8-140.8v409.6c0 25.6-17.067 42.667-42.667 42.667s-42.667-17.067-42.667-42.667v-409.6l-140.8 140.8c-17.067 17.067-42.667 17.067-59.733 0s-17.067-42.667 0-59.733l213.333-213.333z" />
<glyph unicode="&#xe95d;" glyph-name="dribbble" d="M512 917.333c-260.267 0-469.333-209.067-469.333-469.333s209.067-469.333 469.333-469.333 469.333 209.067 469.333 469.333-209.067 469.333-469.333 469.333zM814.933 682.667c46.933-59.733 76.8-136.533 81.067-217.6-93.867 21.333-183.467 25.6-264.533 12.8-8.533 21.333-17.067 38.4-25.6 59.733 76.8 34.133 149.333 81.067 209.067 145.067zM759.467 742.4c-55.467-55.467-115.2-98.133-192-132.267-38.4 68.267-81.067 136.533-136.533 209.067 25.6 8.533 55.467 12.8 81.067 12.8 93.867 0 179.2-34.133 247.467-89.6zM345.6 793.6c55.467-76.8 98.133-145.067 136.533-209.067-93.867-25.6-204.8-42.667-345.6-46.933 29.867 115.2 106.667 209.067 209.067 256zM128 448c0 0 0 4.267 0 0 149.333 8.533 281.6 21.333 396.8 59.733 8.533-17.067 17.067-34.133 21.333-51.2-4.267 0-8.533-4.267-17.067-4.267-115.2-42.667-217.6-123.733-311.467-251.733-55.467 68.267-89.6 153.6-89.6 247.467zM281.6 140.8c89.6 119.467 179.2 196.267 277.333 230.4 4.267 0 12.8 4.267 17.067 4.267 29.867-81.067 55.467-170.667 81.067-281.6-42.667-17.067-93.867-29.867-145.067-29.867-85.333 0-166.4 29.867-230.4 76.8zM738.133 140.8c-25.6 98.133-46.933 183.467-76.8 256 68.267 8.533 145.067 0 226.133-17.067-17.067-98.133-72.533-183.467-149.333-238.933z" />
<glyph unicode="&#xe95e;" glyph-name="droplet" d="M785.067 635.733l-243.2 238.933c-8.533 8.533-17.067 12.8-29.867 12.8v0c-12.8 0-21.333-4.267-29.867-12.8l-238.933-238.933c0 0 0 0 0 0-76.8-72.533-115.2-170.667-115.2-273.067s38.4-200.533 110.933-273.067c72.533-72.533 170.667-110.933 273.067-110.933 0 0 0 0 0 0 102.4 0 200.533 38.4 273.067 110.933 149.333 149.333 149.333 392.533 0 546.133zM725.333 149.333c-59.733-55.467-132.267-85.333-213.333-85.333 0 0 0 0 0 0-81.067 0-153.6 29.867-209.067 85.333-59.733 59.733-89.6 132.267-89.6 213.333s29.867 153.6 85.333 209.067c0 0 0 0 0 0l209.067 213.333 213.333-213.333c119.467-115.2 119.467-302.933 4.267-422.4z" />
<glyph unicode="&#xe95f;" glyph-name="edit-2" d="M925.867 861.867c-64 64-166.4 64-230.4 0l-576-576c-4.267-4.267-8.533-12.8-12.8-17.067l-64-234.667c-4.267-12.8 0-29.867 12.8-42.667 8.533-8.533 17.067-12.8 29.867-12.8 4.267 0 8.533 0 12.8 0l234.667 64c8.533 0 12.8 4.267 17.067 12.8l576 576c64 64 64 166.4 0 230.4zM866.133 691.2l-567.467-567.467-153.6-42.667 42.667 153.6 567.467 567.467c29.867 29.867 81.067 29.867 110.933 0s29.867-81.067 0-110.933z" />
<glyph unicode="&#xe960;" glyph-name="edit-3" d="M896 149.333h-384c-25.6 0-42.667-17.067-42.667-42.667s17.067-42.667 42.667-42.667h384c25.6 0 42.667 17.067 42.667 42.667s-17.067 42.667-42.667 42.667zM861.867 840.533c-51.2 51.2-136.533 51.2-187.733 0l-533.333-533.333c-4.267-4.267-8.533-12.8-12.8-21.333l-42.667-170.667c-4.267-12.8 0-29.867 12.8-38.4 8.533-8.533 17.067-12.8 29.867-12.8 4.267 0 8.533 0 8.533 0l170.667 42.667c8.533 0 12.8 4.267 21.333 12.8l533.333 533.333c51.2 51.2 51.2 136.533 0 187.733zM802.133 712.533l-524.8-524.8-89.6-21.333 21.333 89.6 524.8 524.8c17.067 17.067 51.2 17.067 68.267 0s17.067-51.2 0-68.267z" />
<glyph unicode="&#xe961;" glyph-name="edit" d="M853.333 448c-25.6 0-42.667-17.067-42.667-42.667v-298.667c0-25.6-17.067-42.667-42.667-42.667h-597.333c-25.6 0-42.667 17.067-42.667 42.667v597.333c0 25.6 17.067 42.667 42.667 42.667h298.667c25.6 0 42.667 17.067 42.667 42.667s-17.067 42.667-42.667 42.667h-298.667c-72.533 0-128-55.467-128-128v-597.333c0-72.533 55.467-128 128-128h597.333c72.533 0 128 55.467 128 128v298.667c0 25.6-17.067 42.667-42.667 42.667zM947.2 883.2c-51.2 51.2-136.533 51.2-187.733 0l-405.333-405.333c-4.267-4.267-8.533-12.8-12.8-21.333l-42.667-170.667c-4.267-12.8 0-29.867 12.8-38.4 8.533-8.533 17.067-12.8 29.867-12.8 4.267 0 8.533 0 8.533 0l170.667 42.667c8.533 0 12.8 4.267 21.333 12.8l405.333 405.333c51.2 51.2 51.2 136.533 0 187.733zM887.467 755.2l-396.8-396.8-89.6-21.333 21.333 89.6 396.8 396.8c17.067 17.067 51.2 17.067 68.267 0s17.067-51.2 0-68.267z" />
<glyph unicode="&#xe962;" glyph-name="external-link" d="M768 448c-25.6 0-42.667-17.067-42.667-42.667v-256c0-25.6-17.067-42.667-42.667-42.667h-469.333c-25.6 0-42.667 17.067-42.667 42.667v469.333c0 25.6 17.067 42.667 42.667 42.667h256c25.6 0 42.667 17.067 42.667 42.667s-17.067 42.667-42.667 42.667h-256c-72.533 0-128-55.467-128-128v-469.333c0-72.533 55.467-128 128-128h469.333c72.533 0 128 55.467 128 128v256c0 25.6-17.067 42.667-42.667 42.667zM934.4 849.067c-4.267 8.533-12.8 17.067-21.333 21.333-4.267 4.267-12.8 4.267-17.067 4.267h-256c-25.6 0-42.667-17.067-42.667-42.667s17.067-42.667 42.667-42.667h153.6l-396.8-396.8c-17.067-17.067-17.067-42.667 0-59.733 8.533-8.533 17.067-12.8 29.867-12.8s21.333 4.267 29.867 12.8l396.8 396.8v-153.6c0-25.6 17.067-42.667 42.667-42.667s42.667 17.067 42.667 42.667v256c0 4.267 0 12.8-4.267 17.067z" />
<glyph unicode="&#xe963;" glyph-name="eye-off" d="M430.933 738.133c25.6 4.267 55.467 8.533 81.067 8.533 230.4 0 379.733-230.4 422.4-298.667-21.333-38.4-46.933-76.8-76.8-106.667-17.067-17.067-12.8-46.933 4.267-59.733 8.533-8.533 17.067-8.533 25.6-8.533 12.8 0 25.6 4.267 34.133 17.067 38.4 42.667 68.267 93.867 98.133 145.067 8.533 12.8 8.533 25.6 0 38.4-8.533 8.533-187.733 358.4-507.733 358.4-34.133 0-68.267-4.267-98.133-12.8-25.6-4.267-38.4-25.6-34.133-51.2 8.533-21.333 29.867-34.133 51.2-29.867zM1011.2 8.533l-938.667 938.667c-17.067 17.067-42.667 17.067-59.733 0s-17.067-42.667 0-59.733l183.467-183.467c-76.8-68.267-140.8-145.067-192-234.667-8.533-12.8-8.533-25.6 0-38.4 8.533-17.067 187.733-366.933 507.733-366.933 89.6 0 174.933 25.6 247.467 76.8l192-192c8.533-8.533 21.333-12.8 29.867-12.8s21.333 4.267 29.867 12.8c17.067 17.067 17.067 42.667 0 59.733zM426.667 473.6l106.667-106.667c-8.533-4.267-17.067-4.267-25.6-4.267-21.333 0-42.667 8.533-59.733 21.333-17.067 17.067-25.6 38.4-25.6 59.733 0 8.533 4.267 17.067 4.267 29.867zM512 149.333c-230.4 0-379.733 230.4-422.4 298.667 42.667 76.8 98.133 140.8 166.4 196.267l106.667-110.933c-17.067-29.867-25.6-64-25.6-98.133 0-46.933 21.333-89.6 55.467-119.467 29.867-29.867 72.533-46.933 115.2-46.933 0 0 4.267 0 4.267 0 29.867 0 59.733 12.8 85.333 25.6l98.133-98.133c-55.467-29.867-119.467-46.933-183.467-46.933z" />
<glyph unicode="&#xe964;" glyph-name="eye" d="M1019.733 465.067c-8.533 17.067-187.733 366.933-507.733 366.933s-499.2-349.867-507.733-366.933c-4.267-12.8-4.267-25.6 0-38.4 8.533-12.8 187.733-362.667 507.733-362.667s499.2 349.867 507.733 366.933c4.267 8.533 4.267 25.6 0 34.133zM512 149.333c-230.4 0-379.733 230.4-422.4 298.667 38.4 68.267 192 298.667 422.4 298.667s379.733-230.4 422.4-298.667c-42.667-68.267-192-298.667-422.4-298.667zM512 618.667c-93.867 0-170.667-76.8-170.667-170.667s76.8-170.667 170.667-170.667c93.867 0 170.667 76.8 170.667 170.667s-76.8 170.667-170.667 170.667zM512 362.667c-46.933 0-85.333 38.4-85.333 85.333s38.4 85.333 85.333 85.333c46.933 0 85.333-38.4 85.333-85.333s-38.4-85.333-85.333-85.333z" />
<glyph unicode="&#xe965;" glyph-name="facebook" d="M768 661.333c25.6 0 42.667 17.067 42.667 42.667v170.667c0 25.6-17.067 42.667-42.667 42.667h-128c-140.8 0-256-115.2-256-256v-85.333h-85.333c-25.6 0-42.667-17.067-42.667-42.667v-170.667c0-25.6 17.067-42.667 42.667-42.667h85.333v-298.667c0-25.6 17.067-42.667 42.667-42.667h170.667c25.6 0 42.667 17.067 42.667 42.667v298.667h85.333c21.333 0 38.4 12.8 42.667 34.133l42.667 170.667c4.267 12.8 0 25.6-8.533 38.4s-21.333 12.8-34.133 12.8h-128v85.333h128zM597.333 490.667h115.2l-21.333-85.333h-93.867c-25.6 0-42.667-17.067-42.667-42.667v-298.667h-85.333v298.667c0 25.6-17.067 42.667-42.667 42.667h-85.333v85.333h85.333c25.6 0 42.667 17.067 42.667 42.667v128c0 93.867 76.8 170.667 170.667 170.667h85.333v-85.333h-85.333c-46.933 0-85.333-38.4-85.333-85.333v-128c0-25.6 17.067-42.667 42.667-42.667z" />
<glyph unicode="&#xe966;" glyph-name="fast-forward" d="M964.267 482.133l-384 298.667c-12.8 8.533-29.867 12.8-46.933 4.267-12.8-8.533-21.333-21.333-21.333-38.4v-597.333c0-17.067 8.533-29.867 25.6-38.4 4.267-4.267 12.8-4.267 17.067-4.267 8.533 0 17.067 4.267 25.6 8.533l384 298.667c8.533 8.533 17.067 21.333 17.067 34.133s-4.267 25.6-17.067 34.133zM597.333 234.667v426.667l273.067-213.333-273.067-213.333zM110.933 780.8c-12.8 8.533-29.867 12.8-42.667 4.267-17.067-8.533-25.6-21.333-25.6-38.4v-597.333c0-17.067 8.533-29.867 25.6-38.4 4.267-4.267 12.8-4.267 17.067-4.267 8.533 0 17.067 4.267 25.6 8.533l384 298.667c8.533 8.533 17.067 21.333 17.067 34.133s-4.267 25.6-17.067 34.133l-384 298.667zM128 234.667v426.667l273.067-213.333-273.067-213.333z" />
<glyph unicode="&#xe967;" glyph-name="feather" d="M891.733 832c-115.2 115.2-307.2 115.2-422.4 0l-285.867-290.133c-8.533-8.533-12.8-17.067-12.8-29.867v-345.6l-115.2-115.2c-17.067-17.067-17.067-42.667 0-59.733 8.533-8.533 17.067-12.8 29.867-12.8s21.333 4.267 29.867 12.8l115.2 115.2h345.6c12.8 0 21.333 4.267 29.867 12.8l170.667 170.667c0 0 0 0 4.267 4.267l115.2 115.2c115.2 115.2 115.2 302.933-4.267 422.4zM558.933 192h-243.2l85.333 85.333h243.2l-85.333-85.333zM832 469.333l-102.4-106.667h-243.2l226.133 226.133c17.067 17.067 17.067 42.667 0 59.733s-42.667 17.067-59.733 0l-298.667-298.667c0 0 0 0 0 0l-98.133-98.133v243.2l277.333 277.333c85.333 85.333 217.6 85.333 302.933 0 81.067-85.333 81.067-221.867-4.267-302.933 0 0 0 0 0 0z" />
<glyph unicode="&#xe968;" glyph-name="figma" d="M780.8 576c42.667 34.133 72.533 89.6 72.533 149.333 0 106.667-85.333 192-192 192h-298.667c-106.667 0-192-85.333-192-192 0-59.733 29.867-115.2 72.533-149.333-42.667-34.133-72.533-89.6-72.533-149.333s29.867-115.2 72.533-149.333c-42.667-34.133-72.533-89.6-72.533-149.333 0-106.667 85.333-192 192-192s192 85.333 192 192v140.8c29.867-21.333 68.267-34.133 106.667-34.133 106.667 0 192 85.333 192 192 0 59.733-29.867 115.2-72.533 149.333zM768 725.333c0-59.733-46.933-106.667-106.667-106.667h-106.667v213.333h106.667c59.733 0 106.667-46.933 106.667-106.667zM256 725.333c0 59.733 46.933 106.667 106.667 106.667h106.667v-213.333h-106.667c-59.733 0-106.667 46.933-106.667 106.667zM256 426.667c0 59.733 46.933 106.667 106.667 106.667h106.667v-213.333h-106.667c-59.733 0-106.667 46.933-106.667 106.667zM469.333 128c0-59.733-46.933-106.667-106.667-106.667s-106.667 46.933-106.667 106.667 46.933 106.667 106.667 106.667h106.667v-106.667zM661.333 320c-59.733 0-106.667 46.933-106.667 106.667s46.933 106.667 106.667 106.667 106.667-46.933 106.667-106.667c0-59.733-46.933-106.667-106.667-106.667z" />
<glyph unicode="&#xe969;" glyph-name="file-minus" d="M891.733 635.733c-4.267 4.267-4.267 8.533-8.533 12.8l-256 256c-4.267 4.267-8.533 8.533-12.8 8.533-4.267 4.267-12.8 4.267-17.067 4.267h-341.333c-72.533 0-128-55.467-128-128v-682.667c0-72.533 55.467-128 128-128h512c72.533 0 128 55.467 128 128v512c0 4.267 0 12.8-4.267 17.067zM640 772.267l110.933-110.933h-110.933v110.933zM768 64h-512c-25.6 0-42.667 17.067-42.667 42.667v682.667c0 25.6 17.067 42.667 42.667 42.667h298.667v-213.333c0-25.6 17.067-42.667 42.667-42.667h213.333v-469.333c0-25.6-17.067-42.667-42.667-42.667zM640 362.667h-256c-25.6 0-42.667-17.067-42.667-42.667s17.067-42.667 42.667-42.667h256c25.6 0 42.667 17.067 42.667 42.667s-17.067 42.667-42.667 42.667z" />
<glyph unicode="&#xe96a;" glyph-name="file-plus" d="M891.733 635.733c-4.267 4.267-4.267 8.533-8.533 12.8l-256 256c-4.267 4.267-8.533 8.533-12.8 8.533-4.267 4.267-12.8 4.267-17.067 4.267h-341.333c-72.533 0-128-55.467-128-128v-682.667c0-72.533 55.467-128 128-128h512c72.533 0 128 55.467 128 128v512c0 4.267 0 12.8-4.267 17.067zM640 772.267l110.933-110.933h-110.933v110.933zM768 64h-512c-25.6 0-42.667 17.067-42.667 42.667v682.667c0 25.6 17.067 42.667 42.667 42.667h298.667v-213.333c0-25.6 17.067-42.667 42.667-42.667h213.333v-469.333c0-25.6-17.067-42.667-42.667-42.667zM640 362.667h-85.333v85.333c0 25.6-17.067 42.667-42.667 42.667s-42.667-17.067-42.667-42.667v-85.333h-85.333c-25.6 0-42.667-17.067-42.667-42.667s17.067-42.667 42.667-42.667h85.333v-85.333c0-25.6 17.067-42.667 42.667-42.667s42.667 17.067 42.667 42.667v85.333h85.333c25.6 0 42.667 17.067 42.667 42.667s-17.067 42.667-42.667 42.667z" />
<glyph unicode="&#xe96b;" glyph-name="file-text" d="M891.733 635.733c-4.267 4.267-4.267 8.533-8.533 12.8l-256 256c-4.267 4.267-8.533 8.533-12.8 8.533-4.267 4.267-12.8 4.267-17.067 4.267h-341.333c-72.533 0-128-55.467-128-128v-682.667c0-72.533 55.467-128 128-128h512c72.533 0 128 55.467 128 128v512c0 4.267 0 12.8-4.267 17.067zM640 772.267l110.933-110.933h-110.933v110.933zM768 64h-512c-25.6 0-42.667 17.067-42.667 42.667v682.667c0 25.6 17.067 42.667 42.667 42.667h298.667v-213.333c0-25.6 17.067-42.667 42.667-42.667h213.333v-469.333c0-25.6-17.067-42.667-42.667-42.667zM682.667 448h-341.333c-25.6 0-42.667-17.067-42.667-42.667s17.067-42.667 42.667-42.667h341.333c25.6 0 42.667 17.067 42.667 42.667s-17.067 42.667-42.667 42.667zM682.667 277.333h-341.333c-25.6 0-42.667-17.067-42.667-42.667s17.067-42.667 42.667-42.667h341.333c25.6 0 42.667 17.067 42.667 42.667s-17.067 42.667-42.667 42.667zM341.333 533.333h85.333c25.6 0 42.667 17.067 42.667 42.667s-17.067 42.667-42.667 42.667h-85.333c-25.6 0-42.667-17.067-42.667-42.667s17.067-42.667 42.667-42.667z" />
<glyph unicode="&#xe96c;" glyph-name="file" d="M891.733 593.067c-4.267 4.267-4.267 8.533-8.533 12.8l-298.667 298.667c-4.267 4.267-8.533 8.533-12.8 8.533-4.267 4.267-12.8 4.267-17.067 4.267h-298.667c-72.533 0-128-55.467-128-128v-682.667c0-72.533 55.467-128 128-128h512c72.533 0 128 55.467 128 128v469.333c0 4.267 0 12.8-4.267 17.067zM597.333 772.267l153.6-153.6h-153.6v153.6zM768 64h-512c-25.6 0-42.667 17.067-42.667 42.667v682.667c0 25.6 17.067 42.667 42.667 42.667h256v-256c0-25.6 17.067-42.667 42.667-42.667h256v-426.667c0-25.6-17.067-42.667-42.667-42.667z" />
<glyph unicode="&#xe96d;" glyph-name="film" d="M844.8 917.333h-665.6c-76.8 0-136.533-59.733-136.533-136.533v-665.6c0-76.8 59.733-136.533 136.533-136.533h665.6c76.8 0 136.533 59.733 136.533 136.533v665.6c0 76.8-59.733 136.533-136.533 136.533zM768 618.667h128v-128h-128v128zM682.667 490.667h-341.333v341.333h341.333v-341.333zM256 490.667h-128v128h128v-128zM128 405.333h128v-128h-128v128zM341.333 405.333h341.333v-341.333h-341.333v341.333zM768 405.333h128v-128h-128v128zM896 780.8v-76.8h-128v128h76.8c29.867 0 51.2-21.333 51.2-51.2zM179.2 832h76.8v-128h-128v76.8c0 29.867 21.333 51.2 51.2 51.2zM128 115.2v76.8h128v-128h-76.8c-29.867 0-51.2 21.333-51.2 51.2zM844.8 64h-76.8v128h128v-76.8c0-29.867-21.333-51.2-51.2-51.2z" />
<glyph unicode="&#xe96e;" glyph-name="filter" d="M977.067 849.067c-8.533 17.067-21.333 25.6-38.4 25.6h-853.333c-17.067 0-29.867-8.533-38.4-25.6-8.533-12.8-4.267-29.867 4.267-42.667l332.8-392.533v-264.533c0-17.067 8.533-29.867 25.6-38.4l170.667-85.333c4.267-4.267 8.533-4.267 17.067-4.267s17.067 0 21.333 4.267c12.8 8.533 21.333 21.333 21.333 38.4v349.867l332.8 392.533c8.533 12.8 12.8 29.867 4.267 42.667zM563.2 456.533c-4.267-8.533-8.533-17.067-8.533-29.867v-294.4l-85.333 42.667v251.733c0 8.533-4.267 21.333-8.533 25.6l-281.6 337.067h669.867l-285.867-332.8z" />
<glyph unicode="&#xe96f;" glyph-name="flag" d="M870.4 870.4c-17.067 8.533-34.133 4.267-46.933-8.533 0 0-38.4-29.867-140.8-29.867-55.467 0-102.4 21.333-153.6 38.4-55.467 25.6-115.2 46.933-187.733 46.933-136.533 0-192-46.933-200.533-55.467s-12.8-17.067-12.8-29.867v-810.667c0-25.6 17.067-42.667 42.667-42.667s42.667 17.067 42.667 42.667v277.333c17.067 8.533 59.733 21.333 128 21.333 55.467 0 102.4-21.333 153.6-38.4 55.467-21.333 115.2-46.933 187.733-46.933 136.533 0 192 46.933 200.533 55.467s12.8 17.067 12.8 29.867v512c0 17.067-8.533 29.867-25.6 38.4zM810.667 341.333c-17.067-8.533-59.733-21.333-128-21.333-55.467 0-102.4 21.333-153.6 38.4-55.467 25.6-115.2 46.933-187.733 46.933-55.467 0-98.133-8.533-128-17.067v422.4c17.067 8.533 59.733 21.333 128 21.333 55.467 0 102.4-21.333 153.6-38.4 55.467-25.6 115.2-46.933 187.733-46.933 55.467 0 98.133 8.533 128 17.067v-422.4z" />
<glyph unicode="&#xe970;" glyph-name="folder-minus" d="M853.333 746.667h-362.667l-72.533 110.933c-8.533 8.533-21.333 17.067-34.133 17.067h-213.333c-72.533 0-128-55.467-128-128v-597.333c0-72.533 55.467-128 128-128h682.667c72.533 0 128 55.467 128 128v469.333c0 72.533-55.467 128-128 128zM896 149.333c0-25.6-17.067-42.667-42.667-42.667h-682.667c-25.6 0-42.667 17.067-42.667 42.667v597.333c0 25.6 17.067 42.667 42.667 42.667h192l72.533-110.933c8.533-8.533 21.333-17.067 34.133-17.067h384c25.6 0 42.667-17.067 42.667-42.667v-469.333zM640 405.333h-256c-25.6 0-42.667-17.067-42.667-42.667s17.067-42.667 42.667-42.667h256c25.6 0 42.667 17.067 42.667 42.667s-17.067 42.667-42.667 42.667z" />
<glyph unicode="&#xe971;" glyph-name="folder-plus" d="M853.333 746.667h-362.667l-72.533 110.933c-8.533 8.533-21.333 17.067-34.133 17.067h-213.333c-72.533 0-128-55.467-128-128v-597.333c0-72.533 55.467-128 128-128h682.667c72.533 0 128 55.467 128 128v469.333c0 72.533-55.467 128-128 128zM896 149.333c0-25.6-17.067-42.667-42.667-42.667h-682.667c-25.6 0-42.667 17.067-42.667 42.667v597.333c0 25.6 17.067 42.667 42.667 42.667h192l72.533-110.933c8.533-8.533 21.333-17.067 34.133-17.067h384c25.6 0 42.667-17.067 42.667-42.667v-469.333zM640 405.333h-85.333v85.333c0 25.6-17.067 42.667-42.667 42.667s-42.667-17.067-42.667-42.667v-85.333h-85.333c-25.6 0-42.667-17.067-42.667-42.667s17.067-42.667 42.667-42.667h85.333v-85.333c0-25.6 17.067-42.667 42.667-42.667s42.667 17.067 42.667 42.667v85.333h85.333c25.6 0 42.667 17.067 42.667 42.667s-17.067 42.667-42.667 42.667z" />
<glyph unicode="&#xe972;" glyph-name="folder" d="M853.333 746.667h-362.667l-72.533 110.933c-8.533 8.533-21.333 17.067-34.133 17.067h-213.333c-72.533 0-128-55.467-128-128v-597.333c0-72.533 55.467-128 128-128h682.667c72.533 0 128 55.467 128 128v469.333c0 72.533-55.467 128-128 128zM896 149.333c0-25.6-17.067-42.667-42.667-42.667h-682.667c-25.6 0-42.667 17.067-42.667 42.667v597.333c0 25.6 17.067 42.667 42.667 42.667h192l72.533-110.933c8.533-8.533 21.333-17.067 34.133-17.067h384c25.6 0 42.667-17.067 42.667-42.667v-469.333z" />
<glyph unicode="&#xe973;" glyph-name="framer" d="M853.333 576v298.667c0 25.6-17.067 42.667-42.667 42.667h-597.333c-17.067 0-34.133-8.533-38.4-25.6-8.533-17.067-4.267-34.133 8.533-46.933l226.133-226.133h-196.267c-25.6 0-42.667-17.067-42.667-42.667v-298.667c0 0 0 0 0 0 0-4.267 0-12.8 4.267-17.067 0-4.267 4.267-8.533 8.533-12.8l298.667-298.667c8.533-8.533 17.067-12.8 29.867-12.8 4.267 0 12.8 0 17.067 4.267 17.067 8.533 25.6 21.333 25.6 38.4v256h256c17.067 0 34.133 8.533 38.4 25.6 8.533 17.067 4.267 34.133-8.533 46.933l-226.133 226.133h196.267c25.6 0 42.667 17.067 42.667 42.667zM469.333 81.067l-153.6 153.6h153.6v-153.6zM708.267 320h-452.267v213.333h238.933l213.333-213.333zM768 618.667h-238.933l-213.333 213.333h452.267v-213.333z" />
<glyph unicode="&#xe974;" glyph-name="frown" d="M512 917.333c-260.267 0-469.333-209.067-469.333-469.333s209.067-469.333 469.333-469.333 469.333 209.067 469.333 469.333-209.067 469.333-469.333 469.333zM512 64c-213.333 0-384 170.667-384 384s170.667 384 384 384c213.333 0 384-170.667 384-384s-170.667-384-384-384zM512 405.333c-128 0-200.533-98.133-204.8-102.4-12.8-17.067-8.533-46.933 8.533-59.733s46.933-8.533 59.733 8.533c0 0 55.467 68.267 136.533 68.267s136.533-68.267 136.533-68.267c8.533-12.8 21.333-17.067 34.133-17.067 8.533 0 17.067 4.267 25.6 8.533 17.067 12.8 21.333 42.667 8.533 59.733-4.267 4.267-76.8 102.4-204.8 102.4zM384 533.333c25.6 0 42.667 17.067 42.667 42.667s-17.067 42.667-42.667 42.667v0c-25.6 0-42.667-17.067-42.667-42.667s21.333-42.667 42.667-42.667zM640 533.333c25.6 0 42.667 17.067 42.667 42.667s-17.067 42.667-42.667 42.667v0c-25.6 0-42.667-17.067-42.667-42.667s21.333-42.667 42.667-42.667z" />
<glyph unicode="&#xe975;" glyph-name="gift" d="M938.667 704h-102.4c12.8 21.333 17.067 42.667 17.067 64 0 81.067-68.267 149.333-149.333 149.333-98.133 0-157.867-68.267-192-132.267-34.133 64-93.867 132.267-192 132.267-81.067 0-149.333-68.267-149.333-149.333 0-21.333 4.267-42.667 17.067-64h-102.4c-25.6 0-42.667-17.067-42.667-42.667v-213.333c0-25.6 17.067-42.667 42.667-42.667h42.667v-384c0-25.6 17.067-42.667 42.667-42.667h682.667c25.6 0 42.667 17.067 42.667 42.667v384h42.667c25.6 0 42.667 17.067 42.667 42.667v213.333c0 25.6-17.067 42.667-42.667 42.667zM704 832c34.133 0 64-29.867 64-64s-29.867-64-64-64h-136.533c21.333 51.2 64 128 136.533 128zM256 768c0 34.133 29.867 64 64 64 72.533 0 115.2-76.8 136.533-128h-136.533c-34.133 0-64 29.867-64 64zM128 618.667h341.333v-128h-341.333v128zM213.333 405.333h256v-341.333h-256v341.333zM810.667 64h-256v341.333h256v-341.333zM896 490.667h-341.333v128h341.333v-128z" />
<glyph unicode="&#xe976;" glyph-name="git-branch" d="M938.667 704c0 93.867-76.8 170.667-170.667 170.667s-170.667-76.8-170.667-170.667c0-76.8 55.467-145.067 128-162.133-17.067-157.867-145.067-285.867-302.933-302.933-17.067 59.733-64 106.667-119.467 119.467v473.6c0 25.6-17.067 42.667-42.667 42.667s-46.933-17.067-46.933-42.667v-473.6c-72.533-17.067-128-85.333-128-166.4 0-93.867 76.8-170.667 170.667-170.667 81.067 0 145.067 55.467 166.4 128 204.8 17.067 371.2 183.467 388.267 388.267 72.533 21.333 128 85.333 128 166.4zM256 106.667c-46.933 0-85.333 38.4-85.333 85.333s38.4 85.333 85.333 85.333 85.333-38.4 85.333-85.333-38.4-85.333-85.333-85.333zM768 618.667c-46.933 0-85.333 38.4-85.333 85.333s38.4 85.333 85.333 85.333 85.333-38.4 85.333-85.333-38.4-85.333-85.333-85.333z" />
<glyph unicode="&#xe977;" glyph-name="git-commit" d="M981.333 490.667h-256c0 0-4.267 0-4.267 0-21.333 98.133-106.667 170.667-209.067 170.667s-187.733-72.533-209.067-170.667c0 0-4.267 0-4.267 0h-256c-25.6 0-42.667-17.067-42.667-42.667s17.067-42.667 42.667-42.667h256c0 0 4.267 0 4.267 0 21.333-98.133 106.667-170.667 209.067-170.667s187.733 72.533 209.067 170.667c0 0 4.267 0 4.267 0h256c25.6 0 42.667 17.067 42.667 42.667s-21.333 42.667-42.667 42.667zM512 320c-72.533 0-128 55.467-128 128s55.467 128 128 128 128-55.467 128-128-55.467-128-128-128z" />
<glyph unicode="&#xe978;" glyph-name="git-merge" d="M768 362.667c-76.8 0-145.067-55.467-162.133-128-157.867 17.067-285.867 145.067-302.933 302.933 72.533 21.333 128 85.333 128 162.133 0 93.867-76.8 170.667-170.667 170.667s-174.933-72.533-174.933-166.4c0-81.067 55.467-145.067 128-166.4v-473.6c0-25.6 17.067-42.667 42.667-42.667s42.667 17.067 42.667 42.667v256c72.533-93.867 179.2-157.867 302.933-170.667 17.067-72.533 85.333-132.267 166.4-132.267 93.867 0 170.667 76.8 170.667 170.667s-76.8 174.933-170.667 174.933zM170.667 704c0 46.933 38.4 85.333 85.333 85.333s85.333-38.4 85.333-85.333-38.4-85.333-85.333-85.333-85.333 38.4-85.333 85.333zM768 106.667c-46.933 0-85.333 38.4-85.333 85.333s38.4 85.333 85.333 85.333 85.333-38.4 85.333-85.333-38.4-85.333-85.333-85.333z" />
<glyph unicode="&#xe979;" glyph-name="git-pull-request" d="M810.667 358.4v260.267c0 72.533-55.467 128-128 128h-128c-25.6 0-42.667-17.067-42.667-42.667s17.067-42.667 42.667-42.667h128c25.6 0 42.667-17.067 42.667-42.667v-260.267c-72.533-17.067-128-85.333-128-166.4 0-93.867 76.8-170.667 170.667-170.667s170.667 76.8 170.667 170.667c0 81.067-55.467 145.067-128 166.4zM768 106.667c-46.933 0-85.333 38.4-85.333 85.333s38.4 85.333 85.333 85.333 85.333-38.4 85.333-85.333-38.4-85.333-85.333-85.333zM256 874.667c-93.867 0-170.667-76.8-170.667-170.667 0-81.067 55.467-145.067 128-166.4v-473.6c0-25.6 17.067-42.667 42.667-42.667s42.667 17.067 42.667 42.667v473.6c72.533 17.067 128 85.333 128 166.4 0 93.867-76.8 170.667-170.667 170.667zM256 618.667c-46.933 0-85.333 38.4-85.333 85.333s38.4 85.333 85.333 85.333 85.333-38.4 85.333-85.333-38.4-85.333-85.333-85.333z" />
<glyph unicode="&#xe97a;" glyph-name="github" d="M960 597.333c0 64-21.333 119.467-59.733 170.667 12.8 55.467 8.533 115.2-12.8 166.4-4.267 12.8-12.8 21.333-25.6 25.6-17.067 4.267-72.533 12.8-187.733-59.733-93.867 21.333-192 21.333-281.6 0-115.2 72.533-170.667 64-187.733 59.733-12.8-4.267-21.333-12.8-25.6-25.6-25.6-55.467-29.867-110.933-12.8-166.4-38.4-51.2-59.733-110.933-59.733-170.667 0-230.4 128-302.933 247.467-328.533-8.533-29.867-12.8-55.467-12.8-81.067v-4.267c-89.6-17.067-119.467 17.067-153.6 64-21.333 29.867-46.933 64-93.867 72.533-21.333 4.267-46.933-8.533-51.2-29.867s8.533-46.933 29.867-51.2c12.8-4.267 29.867-21.333 46.933-42.667 38.4-51.2 93.867-119.467 221.867-102.4v-72.533c0-25.6 17.067-42.667 42.667-42.667s42.667 17.067 42.667 42.667v123.733c0 0 0 4.267 0 4.267v38.4c0 29.867 8.533 55.467 29.867 76.8 12.8 12.8 17.067 29.867 8.533 42.667-4.267 17.067-17.067 25.6-34.133 29.867-123.733 17.067-238.933 55.467-238.933 256 0 51.2 17.067 93.867 51.2 132.267 12.8 12.8 12.8 29.867 8.533 42.667-12.8 38.4-12.8 72.533-4.267 106.667 21.333-4.267 59.733-17.067 110.933-55.467 12.8-8.533 25.6-8.533 38.4-4.267 89.6 25.6 187.733 25.6 277.333 0 12.8-4.267 25.6 0 34.133 4.267 55.467 38.4 93.867 51.2 110.933 55.467 8.533-34.133 8.533-68.267-4.267-102.4-4.267-17.067-4.267-34.133 8.533-42.667 34.133-34.133 51.2-81.067 51.2-132.267 0-200.533-115.2-243.2-238.933-256-17.067 0-29.867-12.8-34.133-29.867s0-34.133 8.533-42.667c21.333-21.333 29.867-51.2 29.867-81.067v-166.4c0-25.6 17.067-42.667 42.667-42.667s42.667 17.067 42.667 42.667v162.133c4.267 29.867 0 55.467-12.8 81.067 102.4 21.333 247.467 89.6 247.467 332.8z" />
<glyph unicode="&#xe97b;" glyph-name="gitlab" d="M1019.733 401.067l-157.867 477.867c-4.267 8.533-8.533 17.067-17.067 25.6-21.333 21.333-59.733 21.333-81.067 0-8.533-4.267-12.8-12.8-17.067-25.6l-93.867-290.133h-281.6l-93.867 290.133c-4.267 8.533-8.533 17.067-17.067 25.6-21.333 21.333-59.733 21.333-81.067 0-8.533-4.267-12.8-12.8-17.067-25.6l-157.867-477.867c-12.8-34.133 0-68.267 29.867-89.6l452.267-328.533c8.533-4.267 17.067-8.533 25.6-8.533s17.067 4.267 25.6 8.533l452.267 328.533c29.867 17.067 42.667 55.467 29.867 89.6zM512 68.267l-426.667 307.2 132.267 405.333 81.067-247.467c4.267-17.067 21.333-29.867 42.667-29.867h341.333c17.067 0 34.133 12.8 42.667 29.867l81.067 247.467 81.067-247.467 51.2-153.6-426.667-311.467z" />
<glyph unicode="&#xe97c;" glyph-name="globe" d="M512 917.333c-260.267 0-469.333-209.067-469.333-469.333s209.067-469.333 469.333-469.333 469.333 209.067 469.333 469.333-209.067 469.333-469.333 469.333zM891.733 490.667h-170.667c-8.533 119.467-46.933 230.4-115.2 328.533 153.6-38.4 268.8-170.667 285.867-328.533zM388.267 405.333h251.733c-12.8-115.2-55.467-226.133-123.733-315.733-76.8 89.6-119.467 200.533-128 315.733zM388.267 490.667c12.8 115.2 55.467 226.133 123.733 315.733 72.533-93.867 115.2-204.8 123.733-315.733h-247.467zM413.867 819.2c-64-98.133-102.4-209.067-110.933-328.533h-170.667c17.067 157.867 132.267 290.133 281.6 328.533zM132.267 405.333h170.667c8.533-119.467 46.933-230.4 115.2-328.533-153.6 38.4-268.8 170.667-285.867 328.533zM610.133 76.8c64 98.133 102.4 209.067 115.2 328.533h170.667c-21.333-157.867-136.533-290.133-285.867-328.533z" />
<glyph unicode="&#xe97d;" glyph-name="grid" d="M426.667 874.667h-298.667c-25.6 0-42.667-17.067-42.667-42.667v-298.667c0-25.6 17.067-42.667 42.667-42.667h298.667c25.6 0 42.667 17.067 42.667 42.667v298.667c0 25.6-17.067 42.667-42.667 42.667zM384 576h-213.333v213.333h213.333v-213.333zM896 874.667h-298.667c-25.6 0-42.667-17.067-42.667-42.667v-298.667c0-25.6 17.067-42.667 42.667-42.667h298.667c25.6 0 42.667 17.067 42.667 42.667v298.667c0 25.6-17.067 42.667-42.667 42.667zM853.333 576h-213.333v213.333h213.333v-213.333zM896 405.333h-298.667c-25.6 0-42.667-17.067-42.667-42.667v-298.667c0-25.6 17.067-42.667 42.667-42.667h298.667c25.6 0 42.667 17.067 42.667 42.667v298.667c0 25.6-17.067 42.667-42.667 42.667zM853.333 106.667h-213.333v213.333h213.333v-213.333zM426.667 405.333h-298.667c-25.6 0-42.667-17.067-42.667-42.667v-298.667c0-25.6 17.067-42.667 42.667-42.667h298.667c25.6 0 42.667 17.067 42.667 42.667v298.667c0 25.6-17.067 42.667-42.667 42.667zM384 106.667h-213.333v213.333h213.333v-213.333z" />
<glyph unicode="&#xe97e;" glyph-name="hard-drive" d="M977.067 465.067c0 0 0 0 0 0l-149.333 294.4c-21.333 42.667-64 72.533-115.2 72.533h-405.333c-46.933 0-89.6-25.6-110.933-72.533l-145.067-294.4c0 0 0 0 0 0-8.533-4.267-8.533-8.533-8.533-17.067v-256c0-72.533 55.467-128 128-128h682.667c72.533 0 128 55.467 128 128v256c0 8.533 0 12.8-4.267 17.067zM268.8 721.067c0 0 0 0 0 0 8.533 17.067 25.6 25.6 38.4 25.6h405.333c17.067 0 29.867-8.533 38.4-25.6l115.2-230.4h-712.533l115.2 230.4zM853.333 149.333h-682.667c-25.6 0-42.667 17.067-42.667 42.667v213.333h768v-213.333c0-25.6-17.067-42.667-42.667-42.667zM256 320v0c-25.6 0-42.667-17.067-42.667-42.667s21.333-42.667 42.667-42.667 42.667 17.067 42.667 42.667-17.067 42.667-42.667 42.667zM426.667 320v0c-25.6 0-42.667-17.067-42.667-42.667s21.333-42.667 42.667-42.667 42.667 17.067 42.667 42.667-17.067 42.667-42.667 42.667z" />
<glyph unicode="&#xe97f;" glyph-name="hash" d="M853.333 362.667h-179.2l17.067 170.667h162.133c25.6 0 42.667 17.067 42.667 42.667s-17.067 42.667-42.667 42.667h-149.333l21.333 209.067c4.267 21.333-12.8 42.667-38.4 46.933-21.333 4.267-42.667-12.8-46.933-38.4l-25.6-217.6h-170.667l25.6 209.067c4.267 21.333-12.8 42.667-38.4 46.933-21.333 4.267-42.667-12.8-46.933-38.4l-25.6-217.6h-187.733c-25.6 0-42.667-17.067-42.667-42.667s17.067-42.667 42.667-42.667h179.2l-17.067-170.667h-162.133c-25.6 0-42.667-17.067-42.667-42.667s17.067-42.667 42.667-42.667h149.333l-21.333-209.067c-4.267-21.333 12.8-42.667 38.4-46.933 0 0 4.267 0 4.267 0 21.333 0 38.4 17.067 42.667 38.4l25.6 217.6h170.667l-25.6-209.067c-4.267-21.333 12.8-42.667 38.4-46.933 0 0 4.267 0 4.267 0 21.333 0 38.4 17.067 42.667 38.4l25.6 217.6h187.733c25.6 0 42.667 17.067 42.667 42.667s-17.067 42.667-42.667 42.667zM418.133 362.667l17.067 170.667h170.667l-17.067-170.667h-170.667z" />
</font>
</defs>
</svg>
