<svg xmlns="http://www.w3.org/2000/svg" xmlns:xlink="http://www.w3.org/1999/xlink" width="24" height="24" viewBox="0 0 24 24">
  <defs>
    <clipPath id="clip-Icon-instagram">
      <rect width="24" height="24"/>
    </clipPath>
  </defs>
  <g id="Icon-instagram" clip-path="url(#clip-Icon-instagram)">
    <g id="Group_2" data-name="Group 2" transform="translate(207.863 -65.8)">
      <path id="Path_6" data-name="Path 6" d="M-185.853,73.365a6.255,6.255,0,0,0-.062-.906,5.462,5.462,0,0,0-5.39-4.653q-4.557-.012-9.114,0a5.4,5.4,0,0,0-1.209.148,5.426,5.426,0,0,0-4.246,5.377q0,2.233,0,4.465c0,1.5,0,3,0,4.494a5.534,5.534,0,0,0,.066.877,5.458,5.458,0,0,0,5.471,4.627q4.472,0,8.943,0a5.583,5.583,0,0,0,.907-.067,5.452,5.452,0,0,0,4.634-5.491Q-185.849,77.8-185.853,73.365Zm-1.791,9.037a3.633,3.633,0,0,1-3.6,3.606q-4.615,0-9.229,0a3.633,3.633,0,0,1-3.6-3.605q0-2.3,0-4.608t0-4.579a3.632,3.632,0,0,1,3.617-3.621q4.6,0,9.2,0a3.633,3.633,0,0,1,3.619,3.619Q-187.641,77.808-187.644,82.4Z" fill="#545d63"/>
      <path id="Path_7" data-name="Path 7" d="M-155.944,115.579a4.494,4.494,0,0,0-4.528,4.359,4.5,4.5,0,0,0,4.5,4.678,4.541,4.541,0,0,0,4.55-4.382A4.524,4.524,0,0,0-155.944,115.579Zm0,7.275a2.75,2.75,0,0,1-2.771-2.767,2.779,2.779,0,0,1,2.757-2.751,2.789,2.789,0,0,1,2.774,2.766A2.774,2.774,0,0,1-155.942,122.853Z" transform="translate(-40.226 -42.331)" fill="#545d63"/>
      <path id="Path_8" data-name="Path 8" d="M-84.066,103.766a.912.912,0,0,0-.88.9.913.913,0,0,0,.894.887.926.926,0,0,0,.9-.916A.927.927,0,0,0-84.066,103.766Z" transform="translate(-107.143 -31.865)" fill="#545d63"/>
    </g>
  </g>
</svg>
