<svg xmlns="http://www.w3.org/2000/svg" xmlns:xlink="http://www.w3.org/1999/xlink" width="24" height="24" viewBox="0 0 24 24">
  <defs>
    <clipPath id="clip-icon-twitter">
      <rect width="24" height="24"/>
    </clipPath>
  </defs>
  <g id="icon-twitter" clip-path="url(#clip-icon-twitter)">
    <path id="Path_4" data-name="Path 4" d="M456.071,85.562c-.512-.4-1.023-.76-1.483-1.173a8.225,8.225,0,0,1-2.727-5.121,11.58,11.58,0,0,1,.689-5.678c.122-.331.275-.669.669-.736a1.013,1.013,0,0,1,1.03.506c.027.038.057.075.085.113a8.475,8.475,0,0,0,2.031,1.95,8.861,8.861,0,0,0,3.923,1.488,2.9,2.9,0,0,0,.377,0c.07-.431.107-.854.21-1.26a4.879,4.879,0,0,1,4.262-3.666,4.815,4.815,0,0,1,3.593,1.043.423.423,0,0,0,.531.072c.575-.32,1.163-.617,1.733-.945a.977.977,0,0,1,1.016-.073.916.916,0,0,1,.383,1.086,7.63,7.63,0,0,1-1.58,3.058.761.761,0,0,0-.2.554,13.083,13.083,0,0,1-3.175,9.138,11.626,11.626,0,0,1-6.553,3.753,13.856,13.856,0,0,1-9.636-1.551.874.874,0,0,1,.419-1.666,9.852,9.852,0,0,0,4.159-.774C455.905,85.648,455.978,85.608,456.071,85.562Zm13.493-10.592-.057-.064a1.462,1.462,0,0,0-.236.066,1.11,1.11,0,0,1-1.408-.339,2.994,2.994,0,0,0-2.322-.911,3.169,3.169,0,0,0-3.046,2.985c-.01.386-.016.772-.031,1.158a.826.826,0,0,1-.809.848,6.2,6.2,0,0,1-.621,0,10.294,10.294,0,0,1-6.323-2.328c-.308-.244-.6-.511-.913-.785-.032.12-.061.209-.079.3a9.289,9.289,0,0,0-.12,3.085,6.568,6.568,0,0,0,2.04,3.99,9.378,9.378,0,0,0,2.62,1.7.877.877,0,0,1,.583.8.908.908,0,0,1-.479.837,11.275,11.275,0,0,1-2.82,1.346c-.095.029-.184.073-.309.123a.873.873,0,0,0,.107.06,1.937,1.937,0,0,0,.19.055,11.473,11.473,0,0,0,5.512-.062,10,10,0,0,0,6.429-5.014,10.685,10.685,0,0,0,1.263-3.98,23.056,23.056,0,0,0,.071-2.5,1.07,1.07,0,0,1,.28-.823C469.255,75.339,469.406,75.15,469.564,74.969Z" transform="translate(-449.739 -68.958)" fill="#545d63"/>
  </g>
</svg>
