<svg xmlns="http://www.w3.org/2000/svg" xmlns:xlink="http://www.w3.org/1999/xlink" width="24" height="24" viewBox="0 0 24 24">
  <defs>
    <clipPath id="clip-Icon-facebook">
      <rect width="24" height="24"/>
    </clipPath>
  </defs>
  <g id="Icon-facebook" clip-path="url(#clip-Icon-facebook)">
    <path id="Path_5" data-name="Path 5" d="M165.562,76.583c-.573,0-1.1-.016-1.632,0a.99.99,0,0,1-1.111-1.115c.032-1.1.007-2.2.009-3.3a.919.919,0,0,1,1.02-1.022c.558,0,1.116,0,1.714,0,0-.28,0-.532,0-.785a10.077,10.077,0,0,1,.171-2.4,5.405,5.405,0,0,1,4.744-4.041c1.069-.064,2.143-.051,3.215-.051a.874.874,0,0,1,.928.956q.008,1.749,0,3.5a.892.892,0,0,1-.973.971c-.769.006-1.538,0-2.307,0H171V71.15h.319c.769,0,1.538,0,2.307,0a.88.88,0,0,1,.961,1.121c-.281,1.234-.6,2.46-.918,3.684a.88.88,0,0,1-.917.625c-.578.005-1.156,0-1.759,0-.008.154-.02.284-.02.414,0,1.934-.018,3.869.008,5.8a.973.973,0,0,1-1.088,1.073c-1.082-.019-2.165,0-3.247-.006-.756,0-1.087-.334-1.087-1.1q0-2.9,0-5.8Zm-.948-1.791c.558,0,1.1.016,1.635,0a.967.967,0,0,1,1.089,1.071c-.025,1.933-.009,3.867-.007,5.8,0,.13.012.261.019.4h1.86V81.7q0-2.943,0-5.886a.92.92,0,0,1,1.02-1.021c.389,0,.778,0,1.167,0,.754,0,.755,0,.936-.735.089-.361.172-.723.265-1.116h-.358c-.683,0-1.367.005-2.05,0a.9.9,0,0,1-.978-.888c-.009-.919-.017-1.839,0-2.758a1.723,1.723,0,0,1,1.556-1.737c.572-.064,1.155-.035,1.733-.047.109,0,.219,0,.331,0V65.658c-.634,0-1.249-.008-1.864,0a3.586,3.586,0,0,0-3.276,2.073,3.882,3.882,0,0,0-.364,1.846c-.008.8,0,1.592,0,2.388a.894.894,0,0,1-.973.972c-.484.006-.968,0-1.452,0-.091,0-.183.009-.289.015Z" transform="translate(-156.818 -61.871)" fill="#545d63"/>
  </g>
</svg>
